<?xml version="1.0" encoding="UTF-8" standalone="no"?>
<svg width="230px" height="80px" viewBox="0 0 230 80" version="1.1" xmlns="http://www.w3.org/2000/svg" xmlns:xlink="http://www.w3.org/1999/xlink">
    <!-- Generator: Sketch 39.1 (31720) - http://www.bohemiancoding.com/sketch -->
    <title>NISA logo</title>
    <desc>Created with Sketch.</desc>
    <defs></defs>
    <g id="Homepage" stroke="none" stroke-width="1" fill="none" fill-rule="evenodd">
        <g id="Homepage-MMVP_1AUG-Copy-5" transform="translate(-290.000000, -1436.000000)" fill="#313131">
            <g id="NISA-logo" transform="translate(290.000000, 1436.000000)">
                <path d="M88.9951275,42.7080022 C88.786079,42.7080022 88.6176789,42.6528263 88.4899271,42.5395704 C88.3621752,42.4263145 88.2315199,42.2578827 88.0979612,42.034275 L82.3868738,32.0300064 C82.3113841,31.9109426 82.2358944,31.8673826 82.1545978,31.8964226 C82.0674943,31.9254626 82.0268459,32.0009665 82.0268459,32.1229343 L82.0268459,42.034275 C82.0268459,42.2433627 81.9687769,42.4088905 81.846832,42.5279544 C81.7277905,42.6499223 81.5622938,42.7080022 81.3561488,42.7080022 L80.5693137,42.7080022 C80.3573618,42.7080022 80.1918651,42.6499223 80.0728237,42.5279544 C79.9508787,42.4088905 79.8928097,42.2433627 79.8928097,42.034275 L79.8928097,28.0979949 C79.8928097,27.8889072 79.9508787,27.7233794 80.0728237,27.6043155 C80.1918651,27.4823476 80.3573618,27.4213637 80.5693137,27.4213637 L81.4432524,27.4213637 C81.6697215,27.4213637 81.8555424,27.4620197 82.0065218,27.5462356 C82.1575012,27.6304515 82.29106,27.7727473 82.4101014,27.9847391 L87.8714921,37.4953282 C87.9324645,37.5824481 88.0021473,37.6202 88.0863474,37.60568 C88.167644,37.5911601 88.2082923,37.5243681 88.2082923,37.4024003 L88.2082923,28.0979949 C88.2082923,27.8889072 88.2663614,27.7233794 88.3883063,27.6043155 C88.5073478,27.4823476 88.6728444,27.4213637 88.8847963,27.4213637 L89.6716315,27.4213637 C89.8777765,27.4213637 90.0432731,27.4823476 90.1623146,27.6043155 C90.2842595,27.7233794 90.3423286,27.8889072 90.3423286,28.0979949 L90.3423286,42.034275 C90.3423286,42.2433627 90.2842595,42.4088905 90.1623146,42.5279544 C90.0432731,42.6499223 89.8777765,42.7080022 89.6716315,42.7080022 L88.9951275,42.7080022 Z" id="Fill-240"></path>
                <path d="M97.9847913,30.2774444 C97.9412395,30.1119166 97.8657498,30.0306047 97.7583222,30.0306047 C97.6567014,30.0306047 97.5812117,30.1119166 97.5347565,30.2774444 L95.7375205,36.3700295 C95.6910653,36.5471733 95.7607481,36.6401011 95.9378586,36.6401011 L99.5816892,36.6401011 C99.7617031,36.6401011 99.8284825,36.5471733 99.7849307,36.3700295 L97.9847913,30.2774444 Z M102.276091,42.7065502 C101.875415,42.7065502 101.619911,42.5294064 101.512484,42.1664068 L100.522407,38.8877946 C100.478855,38.7367867 100.374331,38.6612828 100.208834,38.6612828 L95.3107133,38.6612828 C95.14812,38.6612828 95.0406924,38.7367867 94.9971406,38.8877946 L94.0070639,42.1664068 C93.9025397,42.5294064 93.6470361,42.7065502 93.240553,42.7065502 L92.1401452,42.7065502 C91.707531,42.7065502 91.5507447,42.4974624 91.6668827,42.0792869 L96.1643278,28.029751 C96.236914,27.7916233 96.3414383,27.6289995 96.4662866,27.5476876 C96.5969419,27.4634717 96.7624386,27.4228157 96.971487,27.4228157 L98.5451573,27.4228157 C98.7571092,27.4228157 98.9255093,27.4634717 99.0532611,27.5476876 C99.1781095,27.6289995 99.2797303,27.7916233 99.35522,28.029751 L103.852665,42.0792869 C103.968803,42.4974624 103.81492,42.7065502 103.379403,42.7065502 L102.276091,42.7065502 Z" id="Fill-241"></path>
                <path d="M107.423619,42.7080022 C107.211667,42.7080022 107.049074,42.6499223 106.930032,42.5279544 C106.810991,42.4088905 106.750018,42.2433627 106.750018,42.034275 L106.750018,29.6690571 C106.750018,29.5209533 106.674529,29.4454494 106.526453,29.4454494 L103.152643,29.4454494 C102.943595,29.4454494 102.781001,29.3844655 102.659056,29.2654016 C102.540015,29.1434337 102.481946,28.9808099 102.481946,28.7717222 L102.481946,28.0979949 C102.481946,27.8889072 102.540015,27.7233794 102.659056,27.6043155 C102.781001,27.4823476 102.943595,27.4213637 103.152643,27.4213637 L112.48143,27.4213637 C112.690478,27.4213637 112.853072,27.4823476 112.975017,27.6043155 C113.094058,27.7233794 113.152127,27.8889072 113.152127,28.0979949 L113.152127,28.7717222 C113.152127,28.9808099 113.094058,29.1434337 112.975017,29.2654016 C112.853072,29.3844655 112.690478,29.4454494 112.48143,29.4454494 L109.10762,29.4454494 C108.959544,29.4454494 108.884055,29.5209533 108.884055,29.6690571 L108.884055,42.034275 C108.884055,42.2433627 108.823082,42.4088905 108.704041,42.5279544 C108.584999,42.6499223 108.419503,42.7080022 108.210454,42.7080022 L107.423619,42.7080022 Z" id="Fill-242"></path>
                <path d="M115.177574,42.7080022 C114.965622,42.7080022 114.803029,42.6499223 114.683988,42.5279544 C114.564946,42.4088905 114.503974,42.2433627 114.503974,42.034275 L114.503974,28.0979949 C114.503974,27.8889072 114.564946,27.7233794 114.683988,27.6043155 C114.803029,27.4823476 114.965622,27.4213637 115.177574,27.4213637 L115.964409,27.4213637 C116.173458,27.4213637 116.338954,27.4823476 116.460899,27.6043155 C116.577037,27.7233794 116.63801,27.8889072 116.63801,28.0979949 L116.63801,42.034275 C116.63801,42.2433627 116.577037,42.4088905 116.460899,42.5279544 C116.338954,42.6499223 116.173458,42.7080022 115.964409,42.7080022 L115.177574,42.7080022 Z" id="Fill-243"></path>
                <path d="M127.313417,32.3677412 C127.313417,31.4704063 127.043396,30.7211751 126.503354,30.1200478 C125.966216,29.5218245 125.185188,29.2198088 124.166077,29.2198088 C123.146966,29.2198088 122.371744,29.5218245 121.831702,30.1200478 C121.291661,30.7211751 121.018736,31.4704063 121.018736,32.3677412 L121.018736,37.7633671 C121.018736,38.660702 121.291661,39.4099332 121.831702,40.0110605 C122.371744,40.6121878 123.146966,40.9112995 124.166077,40.9112995 C125.185188,40.9112995 125.966216,40.6121878 126.503354,40.0110605 C127.043396,39.4099332 127.313417,38.660702 127.313417,37.7633671 L127.313417,32.3677412 Z M129.447453,37.7633671 C129.447453,38.5271182 129.316798,39.2298854 129.052584,39.8658607 C128.791274,40.5018359 128.425439,41.0448833 127.952176,41.4950028 C127.481817,41.9451223 126.921451,42.2965059 126.279789,42.5520576 C125.635223,42.8047053 124.929684,42.9324811 124.166077,42.9324811 C123.402469,42.9324811 122.699834,42.8047053 122.052365,42.5520576 C121.410702,42.2965059 120.85324,41.9451223 120.379977,41.4950028 C119.906715,41.0448833 119.54088,40.5018359 119.279569,39.8658607 C119.015355,39.2298854 118.887603,38.5271182 118.887603,37.7633671 L118.887603,32.3677412 C118.887603,31.6039901 119.015355,30.9041269 119.279569,30.2652477 C119.54088,29.6292724 119.906715,29.086225 120.379977,28.6361055 C120.85324,28.18889 121.410702,27.8346024 122.052365,27.5790507 C122.699834,27.323499 123.402469,27.1986272 124.166077,27.1986272 C124.929684,27.1986272 125.635223,27.323499 126.279789,27.5790507 C126.921451,27.8346024 127.481817,28.18889 127.952176,28.6361055 C128.425439,29.086225 128.791274,29.6292724 129.052584,30.2652477 C129.316798,30.9041269 129.447453,31.6039901 129.447453,32.3677412 L129.447453,37.7633671 Z" id="Fill-244"></path>
                <path d="M140.797623,42.7080022 C140.588574,42.7080022 140.420174,42.6528263 140.292422,42.5395704 C140.16467,42.4263145 140.034015,42.2578827 139.900456,42.034275 L134.189369,32.0300064 C134.113879,31.9109426 134.03839,31.8673826 133.954189,31.8964226 C133.869989,31.9254626 133.829341,32.0009665 133.829341,32.1229343 L133.829341,42.034275 C133.829341,42.2433627 133.771272,42.4088905 133.649327,42.5279544 C133.530286,42.6499223 133.364789,42.7080022 133.155741,42.7080022 L132.371809,42.7080022 C132.159857,42.7080022 131.99436,42.6499223 131.875319,42.5279544 C131.753374,42.4088905 131.695305,42.2433627 131.695305,42.034275 L131.695305,28.0979949 C131.695305,27.8889072 131.753374,27.7233794 131.875319,27.6043155 C131.99436,27.4823476 132.159857,27.4213637 132.371809,27.4213637 L133.245748,27.4213637 C133.472217,27.4213637 133.658038,27.4620197 133.809017,27.5462356 C133.959996,27.6304515 134.093555,27.7727473 134.212597,27.9847391 L139.673987,37.4953282 C139.73496,37.5824481 139.804642,37.6202 139.888843,37.60568 C139.970139,37.5911601 140.010787,37.5243681 140.010787,37.4024003 L140.010787,28.0979949 C140.010787,27.8889072 140.068856,27.7233794 140.190801,27.6043155 C140.309843,27.4823476 140.47534,27.4213637 140.687291,27.4213637 L141.471223,27.4213637 C141.680272,27.4213637 141.845768,27.4823476 141.96481,27.6043155 C142.086755,27.7233794 142.144824,27.8889072 142.144824,28.0979949 L142.144824,42.034275 C142.144824,42.2433627 142.086755,42.4088905 141.96481,42.5279544 C141.845768,42.6499223 141.680272,42.7080022 141.471223,42.7080022 L140.797623,42.7080022 Z" id="Fill-245"></path>
                <path d="M149.787577,30.2774444 C149.744025,30.1119166 149.668535,30.0306047 149.561108,30.0306047 C149.459487,30.0306047 149.383997,30.1119166 149.337542,30.2774444 L147.540306,36.3700295 C147.493851,36.5471733 147.563534,36.6401011 147.740644,36.6401011 L151.384475,36.6401011 C151.564489,36.6401011 151.631268,36.5471733 151.587716,36.3700295 L149.787577,30.2774444 Z M154.078877,42.7065502 C153.675297,42.7065502 153.422697,42.5294064 153.315269,42.1664068 L152.325193,38.8877946 C152.281641,38.7367867 152.177117,38.6612828 152.01162,38.6612828 L147.113499,38.6612828 C146.948002,38.6612828 146.843478,38.7367867 146.799926,38.8877946 L145.809849,42.1664068 C145.705325,42.5294064 145.449822,42.7065502 145.043338,42.7065502 L143.942931,42.7065502 C143.510317,42.7065502 143.35353,42.4974624 143.469668,42.0792869 L147.967113,28.029751 C148.0397,27.7916233 148.144224,27.6289995 148.269072,27.5476876 C148.399727,27.4634717 148.565224,27.4228157 148.774273,27.4228157 L150.347943,27.4228157 C150.559895,27.4228157 150.728295,27.4634717 150.856047,27.5476876 C150.980895,27.6289995 151.082516,27.7916233 151.158005,28.029751 L155.652547,42.0792869 C155.771589,42.4974624 155.617706,42.7065502 155.182188,42.7065502 L154.078877,42.7065502 Z" id="Fill-246"></path>
                <path d="M157.653315,42.7080022 C157.441363,42.7080022 157.275866,42.6499223 157.159728,42.5279544 C157.040687,42.4088905 156.976811,42.2433627 156.976811,42.034275 L156.976811,28.0979949 C156.976811,27.8889072 157.040687,27.7233794 157.159728,27.6043155 C157.275866,27.4823476 157.441363,27.4213637 157.653315,27.4213637 L158.44015,27.4213637 C158.649198,27.4213637 158.814695,27.4823476 158.93664,27.6043155 C159.052778,27.7233794 159.113751,27.8889072 159.113751,28.0979949 L159.113751,40.4603088 C159.113751,40.6084126 159.18924,40.6839165 159.337316,40.6839165 L165.475211,40.6839165 C165.684259,40.6839165 165.846853,40.7449004 165.968798,40.8639643 C166.087839,40.9859322 166.148811,41.148556 166.148811,41.3605477 L166.148811,42.034275 C166.148811,42.2433627 166.087839,42.4088905 165.968798,42.5279544 C165.846853,42.6499223 165.684259,42.7080022 165.475211,42.7080022 L157.653315,42.7080022 Z" id="Fill-247"></path>
                <path d="M80.5672813,61.0995939 C80.3553294,61.0995939 80.1927362,61.041514 80.0736947,60.9195461 C79.9546532,60.8004823 79.8907773,60.6349545 79.8907773,60.4258667 L79.8907773,46.4895867 C79.8907773,46.2804989 79.9546532,46.1149711 80.0736947,45.9959072 C80.1927362,45.8739394 80.3553294,45.8129554 80.5672813,45.8129554 L81.3541164,45.8129554 C81.5631649,45.8129554 81.7286616,45.8739394 81.847703,45.9959072 C81.9667445,46.1149711 82.027717,46.2804989 82.027717,46.4895867 L82.027717,60.4258667 C82.027717,60.6349545 81.9667445,60.8004823 81.847703,60.9195461 C81.7286616,61.041514 81.5631649,61.0995939 81.3541164,61.0995939 L80.5672813,61.0995939 Z" id="Fill-248"></path>
                <path d="M93.6020326,61.0995939 C93.3900807,61.0995939 93.224584,61.044418 93.0968322,60.9311621 C92.9690803,60.8179062 92.8384251,60.6494744 92.7048663,60.4258667 L86.9937789,50.4215982 C86.9182892,50.3025343 86.8398961,50.2589743 86.7615029,50.2880143 C86.6743994,50.3170543 86.6337511,50.3925582 86.6337511,50.5145261 L86.6337511,60.4258667 C86.6337511,60.6349545 86.575682,60.8004823 86.4537371,60.9195461 C86.3346956,61.041514 86.169199,61.0995939 85.9601505,61.0995939 L85.1762188,61.0995939 C84.9642669,61.0995939 84.7987703,61.041514 84.6797288,60.9195461 C84.5577839,60.8004823 84.4997148,60.6349545 84.4997148,60.4258667 L84.4997148,46.4895867 C84.4997148,46.2804989 84.5577839,46.1149711 84.6797288,45.9959072 C84.7987703,45.8739394 84.9642669,45.8129554 85.1762188,45.8129554 L86.0501575,45.8129554 C86.2766266,45.8129554 86.4624475,45.8536114 86.6134269,45.9407313 C86.7644063,46.0220432 86.8979651,46.164339 87.01991,46.3763308 L92.4783972,55.8869199 C92.5393696,55.9740398 92.6090525,56.0117918 92.6932525,55.9972718 C92.7745491,55.9827518 92.8151975,55.9159599 92.8151975,55.793992 L92.8151975,46.4895867 C92.8151975,46.2804989 92.8732665,46.1149711 92.9952114,45.9959072 C93.1142529,45.8739394 93.2797496,45.8129554 93.4917015,45.8129554 L94.2785366,45.8129554 C94.4846816,45.8129554 94.6501783,45.8739394 94.7692197,45.9959072 C94.8911647,46.1149711 94.9492337,46.2804989 94.9492337,46.4895867 L94.9492337,60.4258667 C94.9492337,60.6349545 94.8911647,60.8004823 94.7692197,60.9195461 C94.6501783,61.041514 94.4846816,61.0995939 94.2785366,61.0995939 L93.6020326,61.0995939 Z" id="Fill-249"></path>
                <path d="M106.524711,61.0995939 C106.315662,61.0995939 106.147262,61.044418 106.01951,60.9311621 C105.891758,60.8179062 105.761103,60.6494744 105.627544,60.4258667 L99.916457,50.4215982 C99.8409673,50.3025343 99.7654776,50.2589743 99.6812775,50.2880143 C99.5970774,50.3170543 99.5564291,50.3925582 99.5564291,50.5145261 L99.5564291,60.4258667 C99.5564291,60.6349545 99.4983601,60.8004823 99.3764152,60.9195461 C99.2573737,61.041514 99.091877,61.0995939 98.8828286,61.0995939 L98.0988969,61.0995939 C97.886945,61.0995939 97.7214483,61.041514 97.6024069,60.9195461 C97.4804619,60.8004823 97.4223929,60.6349545 97.4223929,60.4258667 L97.4223929,46.4895867 C97.4223929,46.2804989 97.4804619,46.1149711 97.6024069,45.9959072 C97.7214483,45.8739394 97.886945,45.8129554 98.0988969,45.8129554 L98.9728356,45.8129554 C99.1993047,45.8129554 99.3851255,45.8536114 99.536105,45.9407313 C99.6870844,46.0220432 99.8206431,46.164339 99.9396846,46.3763308 L105.401075,55.8869199 C105.462048,55.9740398 105.531731,56.0117918 105.615931,55.9972718 C105.697227,55.9827518 105.737876,55.9159599 105.737876,55.793992 L105.737876,46.4895867 C105.737876,46.2804989 105.795945,46.1149711 105.917889,45.9959072 C106.036931,45.8739394 106.202428,45.8129554 106.41438,45.8129554 L107.198311,45.8129554 C107.40736,45.8129554 107.572856,45.8739394 107.691898,45.9959072 C107.813843,46.1149711 107.871912,46.2804989 107.871912,46.4895867 L107.871912,60.4258667 C107.871912,60.6349545 107.813843,60.8004823 107.691898,60.9195461 C107.572856,61.041514 107.40736,61.0995939 107.198311,61.0995939 L106.524711,61.0995939 Z" id="Fill-250"></path>
                <path d="M118.548771,50.7596234 C118.548771,49.8622884 118.27875,49.1130573 117.738708,48.5119299 C117.20157,47.9108026 116.420541,47.611691 115.40143,47.611691 C114.382319,47.611691 113.607098,47.9108026 113.064153,48.5119299 C112.527014,49.1130573 112.256993,49.8622884 112.256993,50.7596234 L112.256993,56.1552492 C112.256993,57.0525842 112.527014,57.8018153 113.064153,58.4000386 C113.607098,59.0040699 114.382319,59.3031816 115.40143,59.3031816 C116.420541,59.3031816 117.20157,59.0040699 117.738708,58.4000386 C118.27875,57.8018153 118.548771,57.0525842 118.548771,56.1552492 L118.548771,50.7596234 Z M120.682807,56.1552492 C120.682807,56.9190003 120.552152,57.6217675 120.287938,58.2577428 C120.029531,58.8937181 119.660792,59.4367654 119.18753,59.8868849 C118.717171,60.3370044 118.156805,60.688388 117.515142,60.9439397 C116.870576,61.1965874 116.165038,61.3243633 115.40143,61.3243633 C114.637823,61.3243633 113.935188,61.1965874 113.287718,60.9439397 C112.646056,60.688388 112.088593,60.3370044 111.615331,59.8868849 C111.142068,59.4367654 110.776233,58.8937181 110.514923,58.2577428 C110.250709,57.6217675 110.122957,56.9190003 110.122957,56.1552492 L110.122957,50.7596234 C110.122957,49.9958722 110.250709,49.2931051 110.514923,48.6571298 C110.776233,48.0211545 111.142068,47.4781071 111.615331,47.0279876 C112.088593,46.5778682 112.646056,46.2264846 113.287718,45.9709329 C113.935188,45.7153812 114.637823,45.5905093 115.40143,45.5905093 C116.165038,45.5905093 116.870576,45.7153812 117.515142,45.9709329 C118.156805,46.2264846 118.717171,46.5778682 119.18753,47.0279876 C119.660792,47.4781071 120.029531,48.0211545 120.287938,48.6571298 C120.552152,49.2931051 120.682807,49.9958722 120.682807,50.7596234 L120.682807,56.1552492 Z" id="Fill-251"></path>
                <path d="M127.08898,61.0995939 C126.877029,61.0995939 126.708628,61.058938 126.58378,60.9776261 C126.456028,60.8934102 126.354407,60.7336903 126.278918,60.4926586 L121.784376,46.4431227 C121.665335,46.0249472 121.822121,45.8129554 122.257639,45.8129554 L123.358046,45.8129554 C123.761626,45.8129554 124.01713,45.9959072 124.121654,46.3530988 L127.649346,58.2449652 C127.695802,58.410493 127.768388,58.4918049 127.875816,58.4918049 C127.98034,58.4918049 128.052926,58.410493 128.102285,58.2449652 L131.629977,46.3530988 C131.731598,45.9959072 131.987102,45.8129554 132.393585,45.8129554 L133.493993,45.8129554 C133.926607,45.8129554 134.086296,46.0249472 133.967255,46.4431227 L129.472713,60.4926586 C129.39432,60.7336903 129.295603,60.8934102 129.167851,60.9776261 C129.040099,61.058938 128.871699,61.0995939 128.662651,61.0995939 L127.08898,61.0995939 Z" id="Fill-252"></path>
                <path d="M139.11217,48.6687458 C139.068618,48.503218 138.990225,48.4219061 138.8857,48.4219061 C138.78408,48.4219061 138.70859,48.503218 138.662135,48.6687458 L136.864899,54.7613308 C136.818444,54.9384746 136.888126,55.0314025 137.065237,55.0314025 L140.709067,55.0314025 C140.889081,55.0314025 140.955861,54.9384746 140.912309,54.7613308 L139.11217,48.6687458 Z M143.406373,61.0978515 C142.99989,61.0978515 142.74729,60.9207077 142.639862,60.5606121 L141.649785,57.2790959 C141.606234,57.1309921 141.501709,57.0525842 141.336213,57.0525842 L136.438091,57.0525842 C136.272595,57.0525842 136.168071,57.1309921 136.124519,57.2790959 L135.134442,60.5606121 C135.029918,60.9207077 134.774414,61.0978515 134.367931,61.0978515 L133.267523,61.0978515 C132.834909,61.0978515 132.678123,60.8916678 132.794261,60.4705882 L137.291706,46.4210523 C137.364292,46.1829246 137.468816,46.0203008 137.593665,45.9389889 C137.72432,45.857677 137.889817,45.814117 138.098865,45.814117 L139.672535,45.814117 C139.884487,45.814117 140.049984,45.857677 140.180639,45.9389889 C140.305488,46.0203008 140.407108,46.1829246 140.482598,46.4210523 L144.97714,60.4705882 C145.096181,60.8916678 144.942298,61.0978515 144.506781,61.0978515 L143.406373,61.0978515 Z" id="Fill-253"></path>
                <path d="M148.551288,61.0995939 C148.339336,61.0995939 148.176742,61.041514 148.054797,60.9195461 C147.938659,60.8004823 147.877687,60.6349545 147.877687,60.4258667 L147.877687,48.0606489 C147.877687,47.912545 147.802197,47.8370411 147.654121,47.8370411 L144.280312,47.8370411 C144.071263,47.8370411 143.905767,47.7760572 143.786725,47.6569933 C143.667684,47.5350255 143.606711,47.3724017 143.606711,47.1633139 L143.606711,46.4895867 C143.606711,46.2804989 143.667684,46.1149711 143.786725,45.9959072 C143.905767,45.8739394 144.071263,45.8129554 144.280312,45.8129554 L153.609099,45.8129554 C153.818147,45.8129554 153.98074,45.8739394 154.102685,45.9959072 C154.221727,46.1149711 154.279796,46.2804989 154.279796,46.4895867 L154.279796,47.1633139 C154.279796,47.3724017 154.221727,47.5350255 154.102685,47.6569933 C153.98074,47.7760572 153.818147,47.8370411 153.609099,47.8370411 L150.235289,47.8370411 C150.087213,47.8370411 150.011723,47.912545 150.011723,48.0606489 L150.011723,60.4258667 C150.011723,60.6349545 149.950751,60.8004823 149.831709,60.9195461 C149.709764,61.041514 149.547171,61.0995939 149.338123,61.0995939 L148.551288,61.0995939 Z" id="Fill-254"></path>
                <path d="M156.304952,61.0995939 C156.095904,61.0995939 155.930407,61.041514 155.811366,60.9195461 C155.692324,60.8004823 155.631352,60.6349545 155.631352,60.4258667 L155.631352,46.4895867 C155.631352,46.2804989 155.692324,46.1149711 155.811366,45.9959072 C155.930407,45.8739394 156.095904,45.8129554 156.304952,45.8129554 L157.091788,45.8129554 C157.300836,45.8129554 157.466333,45.8739394 157.588278,45.9959072 C157.704416,46.1149711 157.765388,46.2804989 157.765388,46.4895867 L157.765388,60.4258667 C157.765388,60.6349545 157.704416,60.8004823 157.588278,60.9195461 C157.466333,61.041514 157.300836,61.0995939 157.091788,61.0995939 L156.304952,61.0995939 Z" id="Fill-255"></path>
                <path d="M168.440795,50.7596234 C168.440795,49.8622884 168.170774,49.1130573 167.630733,48.5119299 C167.093594,47.9108026 166.312566,47.611691 165.293455,47.611691 C164.277247,47.611691 163.499122,47.9108026 162.956177,48.5119299 C162.419039,49.1130573 162.149018,49.8622884 162.149018,50.7596234 L162.149018,56.1552492 C162.149018,57.0525842 162.419039,57.8018153 162.956177,58.4000386 C163.499122,59.0040699 164.277247,59.3031816 165.293455,59.3031816 C166.312566,59.3031816 167.093594,59.0040699 167.630733,58.4000386 C168.170774,57.8018153 168.440795,57.0525842 168.440795,56.1552492 L168.440795,50.7596234 Z M170.574832,56.1552492 C170.574832,56.9190003 170.44708,57.6217675 170.182866,58.2577428 C169.921555,58.8937181 169.552817,59.4367654 169.079555,59.8868849 C168.609196,60.3370044 168.04883,60.688388 167.407167,60.9439397 C166.762601,61.1965874 166.057062,61.3243633 165.293455,61.3243633 C164.529847,61.3243633 163.827212,61.1965874 163.179743,60.9439397 C162.53808,60.688388 161.980618,60.3370044 161.507355,59.8868849 C161.034093,59.4367654 160.668258,58.8937181 160.406947,58.2577428 C160.142733,57.6217675 160.014982,56.9190003 160.014982,56.1552492 L160.014982,50.7596234 C160.014982,49.9958722 160.142733,49.2931051 160.406947,48.6571298 C160.668258,48.0211545 161.034093,47.4781071 161.507355,47.0279876 C161.980618,46.5778682 162.53808,46.2264846 163.179743,45.9709329 C163.827212,45.7153812 164.529847,45.5905093 165.293455,45.5905093 C166.057062,45.5905093 166.762601,45.7153812 167.407167,45.9709329 C168.04883,46.2264846 168.609196,46.5778682 169.079555,47.0279876 C169.552817,47.4781071 169.921555,48.0211545 170.182866,48.6571298 C170.44708,49.2931051 170.574832,49.9958722 170.574832,50.7596234 L170.574832,56.1552492 Z" id="Fill-256"></path>
                <path d="M181.925581,61.0995939 C181.716533,61.0995939 181.548133,61.044418 181.420381,60.9311621 C181.292629,60.8179062 181.161974,60.6494744 181.028415,60.4258667 L175.317328,50.4215982 C175.241838,50.3025343 175.166348,50.2589743 175.082148,50.2880143 C174.997948,50.3170543 174.9573,50.3925582 174.9573,50.5145261 L174.9573,60.4258667 C174.9573,60.6349545 174.899231,60.8004823 174.777286,60.9195461 C174.658245,61.041514 174.492748,61.0995939 174.286603,61.0995939 L173.499768,61.0995939 C173.287816,61.0995939 173.122319,61.041514 173.003278,60.9195461 C172.881333,60.8004823 172.823264,60.6349545 172.823264,60.4258667 L172.823264,46.4895867 C172.823264,46.2804989 172.881333,46.1149711 173.003278,45.9959072 C173.122319,45.8739394 173.287816,45.8129554 173.499768,45.8129554 L174.373706,45.8129554 C174.600176,45.8129554 174.785996,45.8536114 174.936976,45.9407313 C175.087955,46.0220432 175.221514,46.164339 175.340555,46.3763308 L180.801946,55.8869199 C180.862919,55.9740398 180.932601,56.0117918 181.016801,55.9972718 C181.098098,55.9827518 181.138746,55.9159599 181.138746,55.793992 L181.138746,46.4895867 C181.138746,46.2804989 181.196815,46.1149711 181.31876,45.9959072 C181.437802,45.8739394 181.603298,45.8129554 181.81525,45.8129554 L182.602085,45.8129554 C182.80823,45.8129554 182.973727,45.8739394 183.092769,45.9959072 C183.214714,46.1149711 183.272783,46.2804989 183.272783,46.4895867 L183.272783,60.4258667 C183.272783,60.6349545 183.214714,60.8004823 183.092769,60.9195461 C182.973727,61.041514 182.80823,61.0995939 182.602085,61.0995939 L181.925581,61.0995939 Z" id="Fill-257"></path>
                <path d="M197.432621,54.7831108 C197.432621,54.6350069 197.357131,54.556599 197.206152,54.556599 L194.892102,54.556599 C194.293991,54.556599 193.797501,54.7714948 193.408438,55.2012863 C193.019376,55.6252698 192.824845,56.1683172 192.824845,56.8304284 C192.824845,57.4867317 193.019376,58.0094511 193.408438,58.3927786 C193.797501,58.7732022 194.293991,58.964866 194.892102,58.964866 L197.206152,58.964866 C197.357131,58.964866 197.432621,58.8893621 197.432621,58.7412582 L197.432621,54.7831108 Z M194.961784,61.1022075 C194.34335,61.1022075 193.78008,60.9976636 193.263266,60.7943839 C192.743548,60.5940081 192.296417,60.3065124 191.913161,59.9289929 C191.532809,59.5572813 191.233754,59.1187778 191.015995,58.6134824 C190.798236,58.1139949 190.690809,57.5535236 190.690809,56.9407803 C190.690809,56.0870053 190.882436,55.3551981 191.262788,54.7511668 C191.64314,54.1442315 192.098982,53.682496 192.621603,53.3688644 C192.740645,53.2904565 192.804521,53.2120486 192.804521,53.1307367 C192.804521,53.0494247 192.766776,52.9681128 192.688383,52.8955129 C192.389327,52.5818813 192.13092,52.1956497 191.913161,51.7484342 C191.698306,51.2983148 191.587975,50.7814033 191.587975,50.1977 C191.587975,49.5994767 191.707016,49.0302934 191.939292,48.49015 C192.168665,47.9500066 192.482238,47.4853671 192.8713,47.0933276 C193.257459,46.707096 193.719108,46.3963684 194.250439,46.1640486 C194.784674,45.9288249 195.356654,45.815569 195.969282,45.815569 L197.656187,45.815569 C197.868139,45.815569 198.030732,45.873649 198.152677,45.9927128 C198.271718,46.1146807 198.329787,46.2773045 198.329787,46.4892963 L198.329787,47.2762794 C198.329787,47.4853671 198.271718,47.6479909 198.152677,47.7699588 C198.030732,47.8890227 197.868139,47.9500066 197.656187,47.9500066 L195.902502,47.9500066 C195.304392,47.9500066 194.790481,48.1649023 194.366577,48.6005018 C193.936866,49.0390053 193.724915,49.6052847 193.724915,50.3080519 C193.724915,51.0137231 193.936866,51.5596745 194.366577,51.951714 C194.790481,52.3408496 195.304392,52.5354173 195.902502,52.5354173 L201.140327,52.5354173 C201.352279,52.5354173 201.514873,52.5964013 201.636817,52.7154651 C201.755859,52.834529 201.813928,53.0000568 201.813928,53.2091446 L201.813928,53.8857758 C201.813928,54.0919596 201.755859,54.2574874 201.636817,54.3794552 C201.514873,54.4985191 201.352279,54.556599 201.140327,54.556599 L199.793126,54.556599 C199.642147,54.556599 199.566657,54.6350069 199.566657,54.7831108 L199.566657,60.4255763 C199.566657,60.6346641 199.508588,60.7972879 199.386643,60.9192557 C199.267602,61.0383196 199.102105,61.1022075 198.893057,61.1022075 L194.961784,61.1022075 Z" id="Fill-258"></path>
                <path d="M80.1848969,76.6365569 C80.3358763,76.4884531 80.4955661,76.4187572 80.6697731,76.4332772 C80.8381733,76.4477971 80.9949596,76.5174931 81.1314218,76.6365569 C81.2475598,76.7411008 81.384022,76.8572607 81.5350014,76.9850365 C81.6830774,77.1128124 81.854381,77.2289722 82.0518156,77.3335161 C82.2463468,77.43806 82.4670091,77.5222759 82.7225127,77.5919718 C82.9780164,77.6587638 83.2741683,77.6936117 83.6022583,77.6936117 C84.3194106,77.6936117 84.9117145,77.4932359 85.3762666,77.0982924 C85.8408187,76.7004449 86.0730947,76.2009574 86.0730947,75.6027341 C86.0730947,74.9290069 85.8669497,74.3888635 85.4575632,73.982304 C85.0423698,73.5815524 84.3890934,73.1604729 83.4890237,72.7277774 C82.9170439,72.4577057 82.4060366,72.17021 81.9501948,71.8710984 C81.4914496,71.5719867 81.0965804,71.2351231 80.7684904,70.8576035 C80.4404005,70.485892 80.1878003,70.0619085 80.0164967,69.591461 C79.8451931,69.1181095 79.7580896,68.5750622 79.7580896,67.9594149 C79.7580896,67.4512155 79.8568069,66.954632 80.0513381,66.4754726 C80.2429659,65.9963131 80.527504,65.5752336 80.9049526,65.206426 C81.2794978,64.8376184 81.732436,64.5443148 82.2637675,64.317803 C82.795099,64.0912913 83.3903064,63.9809394 84.0493897,63.9809394 C84.9059076,63.9809394 85.6346737,64.1464672 86.2443983,64.4775229 C86.8483161,64.8056745 87.3331923,65.1483461 87.6903167,65.5113457 C88.0067929,65.8249773 88.0067929,66.138609 87.6903167,66.4522406 L87.1735025,66.992384 C87.0225231,67.1433918 86.8831575,67.2217997 86.7466953,67.2305117 C86.6131366,67.2363197 86.4534468,67.1579118 86.2763363,66.992384 C86.0818051,66.8152402 85.7827497,66.6032484 85.3762666,66.3651207 C84.972687,66.124089 84.528459,66.0021211 84.0493897,66.0021211 C83.7212997,66.0021211 83.4164374,66.060201 83.1406096,66.1734569 C82.8618783,66.2867128 82.6237954,66.4319126 82.4205538,66.6119604 C82.2202158,66.7891042 82.060526,66.995288 81.9501948,67.2305117 C81.8369603,67.4628314 81.7817947,67.7067672 81.7817947,67.9594149 C81.7817947,68.2904705 81.8282499,68.5808702 81.9269672,68.8364219 C82.0256846,69.0919736 82.1737605,69.3271973 82.3770021,69.5449971 C82.5773402,69.7598928 82.8415542,69.9689806 83.1638372,70.1635483 C83.4832168,70.3581161 83.8780861,70.5526839 84.3426382,70.7472517 C84.9581697,71.0173234 85.5040184,71.301915 85.9830878,71.6010267 C86.4621571,71.9001384 86.8686402,72.237002 87.1967301,72.6029055 C87.5248201,72.9688091 87.7774203,73.3898886 87.9516273,73.8603361 C88.1229309,74.3307836 88.2100344,74.8767349 88.2100344,75.4894782 C88.2100344,76.0615656 88.0909929,76.598805 87.8500065,77.1099084 C87.6090201,77.6181078 87.2780268,78.0624193 86.8599299,78.4457469 C86.4389295,78.8261704 85.9511498,79.1339941 85.3878804,79.3663138 C84.824611,79.5986335 84.2294036,79.7176974 83.6022583,79.7176974 C82.5831471,79.7176974 81.7846982,79.5637856 81.2069115,79.2559619 C80.6320283,78.9481383 80.1268279,78.5531947 79.6913103,78.0740353 C79.5722688,77.9549714 79.5054894,77.8039636 79.4880687,77.6268198 C79.4735515,77.446772 79.5432343,77.2812442 79.6913103,77.1302364 L80.1848969,76.6365569 Z" id="Fill-259"></path>
                <path d="M99.3328634,77.0187229 C99.4838429,77.1697307 99.5506222,77.3323545 99.536105,77.5124023 C99.5215877,77.6953541 99.4519049,77.8434579 99.3328634,77.9654258 C98.8537941,78.4416813 98.2905247,78.8540488 97.6488621,79.1996244 C97.0013926,79.542296 96.1710057,79.7165358 95.1518945,79.7165358 C94.420225,79.7165358 93.7379141,79.5858559 93.1078653,79.3244962 C92.4778165,79.0602326 91.9348712,78.691425 91.4790295,78.2209775 C91.0202843,77.7505301 90.6631598,77.1813467 90.3989458,76.5134275 C90.1376353,75.8484122 90.0040766,75.1166051 90.0040766,74.32091 L90.0040766,69.3783076 C90.0040766,68.5971325 90.1376353,67.8740374 90.3989458,67.2061181 C90.6631598,66.5411029 91.0202843,65.9719195 91.4790295,65.4985681 C91.9348712,65.0252166 92.4778165,64.6564091 93.1078653,64.3863374 C93.7379141,64.1162657 94.420225,63.9797778 95.1518945,63.9797778 C95.6454811,63.9797778 96.095516,64.0320498 96.4990956,64.1278817 C96.9055787,64.2237135 97.2714135,64.3485854 97.6024069,64.4966892 C97.9334002,64.6476971 98.2208418,64.8190329 98.4676351,65.0019847 C98.7173319,65.1907444 98.9205734,65.3678882 99.0860701,65.5305121 C99.3996428,65.8470477 99.3996428,66.1635833 99.0860701,66.477215 L98.5692559,66.9941264 C98.4211799,67.1422302 98.2760074,67.2235421 98.1424487,67.2293501 C98.0059865,67.2380621 97.8492002,67.1567502 97.6691862,66.9941264 C97.474655,66.8140786 97.1785031,66.6020868 96.7807303,66.3639591 C96.385861,66.1229274 95.8429158,66.0038635 95.1518945,66.0038635 C94.6728252,66.0038635 94.2489214,66.0880794 93.8830866,66.2623192 C93.5143484,66.436559 93.2007757,66.6746867 92.9394651,66.9825104 C92.6752511,67.290334 92.4778165,67.6475256 92.3442578,68.0627971 C92.2077956,68.4722607 92.1410162,68.9107642 92.1410162,69.3783076 L92.1410162,74.32091 C92.1410162,75.3256928 92.4052302,76.1388119 92.9394651,76.7602672 C93.4707966,77.3817225 94.2082731,77.6953541 95.1518945,77.6953541 C95.8109778,77.6953541 96.3713438,77.5704823 96.8271855,77.3207385 C97.2830273,77.0738988 97.654669,76.8241551 97.9392071,76.5686034 C98.0727659,76.4495395 98.2295522,76.3827476 98.4008558,76.3682276 C98.5721594,76.3537077 98.7347526,76.4204996 98.8828286,76.5686034 L99.3328634,77.0187229 Z" id="Fill-260"></path>
                <path d="M101.917225,79.4914761 C101.705273,79.4914761 101.54268,79.4333961 101.423638,79.3114283 C101.304597,79.1923644 101.243624,79.0268366 101.243624,78.8177488 L101.243624,64.8785648 C101.243624,64.672381 101.304597,64.5068532 101.423638,64.3877894 C101.54268,64.2658215 101.705273,64.2048376 101.917225,64.2048376 L102.70406,64.2048376 C102.913108,64.2048376 103.078605,64.2658215 103.20055,64.3877894 C103.316688,64.5068532 103.377661,64.672381 103.377661,64.8785648 L103.377661,78.8177488 C103.377661,79.0268366 103.316688,79.1923644 103.20055,79.3114283 C103.078605,79.4333961 102.913108,79.4914761 102.70406,79.4914761 L101.917225,79.4914761 Z" id="Fill-261"></path>
                <path d="M106.52442,79.4914761 C106.312468,79.4914761 106.146972,79.4333961 106.030834,79.3114283 C105.911792,79.1923644 105.847916,79.0268366 105.847916,78.8177488 L105.847916,64.8785648 C105.847916,64.672381 105.911792,64.5068532 106.030834,64.3877894 C106.146972,64.2658215 106.312468,64.2048376 106.52442,64.2048376 L113.942737,64.2048376 C114.148882,64.2048376 114.314378,64.2658215 114.43342,64.3877894 C114.555365,64.5068532 114.616337,64.672381 114.616337,64.8785648 L114.616337,65.555196 C114.616337,65.7642838 114.555365,65.9269076 114.43342,66.0488755 C114.314378,66.1679393 114.148882,66.2289233 113.942737,66.2289233 L108.208422,66.2289233 C108.060346,66.2289233 107.984856,66.3044272 107.984856,66.452531 L107.984856,70.4977984 C107.984856,70.6488062 108.060346,70.7243101 108.208422,70.7243101 L113.492702,70.7243101 C113.70175,70.7243101 113.864344,70.785294 113.986288,70.9043579 C114.10533,71.0234218 114.163399,71.1889496 114.163399,71.4009413 L114.163399,72.0717646 C114.163399,72.2837563 114.10533,72.4492841 113.986288,72.568348 C113.864344,72.6903158 113.70175,72.7483958 113.492702,72.7483958 L108.208422,72.7483958 C108.060346,72.7483958 107.984856,72.8238997 107.984856,72.9749075 L107.984856,77.2437826 C107.984856,77.3918865 108.060346,77.4673904 108.208422,77.4673904 L114.389868,77.4673904 C114.598917,77.4673904 114.764413,77.5283743 114.883455,77.6474382 C115.002496,77.769406 115.066372,77.9320298 115.066372,78.1440216 L115.066372,78.8177488 C115.066372,79.0268366 115.002496,79.1923644 114.883455,79.3114283 C114.764413,79.4333961 114.598917,79.4914761 114.389868,79.4914761 L106.52442,79.4914761 Z" id="Fill-262"></path>
                <path d="M126.189201,79.4914761 C125.977249,79.4914761 125.811753,79.4363001 125.684001,79.3230442 C125.556249,79.2097884 125.425594,79.0413566 125.292035,78.8177488 L119.580947,68.8134803 C119.505458,68.6944164 119.427065,68.6508565 119.345768,68.6798964 C119.261568,68.7089364 119.22092,68.7844403 119.22092,68.9035042 L119.22092,78.8177488 C119.22092,79.0268366 119.162851,79.1923644 119.040906,79.3114283 C118.921864,79.4333961 118.756367,79.4914761 118.547319,79.4914761 L117.763387,79.4914761 C117.551435,79.4914761 117.385939,79.4333961 117.266897,79.3114283 C117.144952,79.1923644 117.086883,79.0268366 117.086883,78.8177488 L117.086883,64.8785648 C117.086883,64.672381 117.144952,64.5068532 117.266897,64.3877894 C117.385939,64.2658215 117.551435,64.2048376 117.763387,64.2048376 L118.637326,64.2048376 C118.863795,64.2048376 119.049616,64.2454935 119.200595,64.3268054 C119.351575,64.4139253 119.485134,64.5562212 119.604175,64.7682129 L125.065566,74.278802 C125.126538,74.3659219 125.196221,74.4036739 125.280421,74.3891539 C125.361718,74.3746339 125.402366,74.307842 125.402366,74.1858741 L125.402366,64.8785648 C125.402366,64.672381 125.460435,64.5068532 125.58238,64.3877894 C125.701421,64.2658215 125.866918,64.2048376 126.07887,64.2048376 L126.862802,64.2048376 C127.07185,64.2048376 127.237347,64.2658215 127.356388,64.3877894 C127.478333,64.5068532 127.536402,64.672381 127.536402,64.8785648 L127.536402,78.8177488 C127.536402,79.0268366 127.478333,79.1923644 127.356388,79.3114283 C127.237347,79.4333961 127.07185,79.4914761 126.862802,79.4914761 L126.189201,79.4914761 Z" id="Fill-263"></path>
                <path d="M139.11217,77.0187229 C139.260245,77.1697307 139.329928,77.3323545 139.315411,77.5124023 C139.300894,77.6953541 139.231211,77.8434579 139.11217,77.9654258 C138.6331,78.4416813 138.069831,78.8540488 137.428168,79.1996244 C136.780699,79.542296 135.950312,79.7165358 134.931201,79.7165358 C134.199531,79.7165358 133.514317,79.5858559 132.887171,79.3244962 C132.257123,79.0602326 131.714177,78.691425 131.258336,78.2209775 C130.79959,77.7505301 130.442466,77.1813467 130.178252,76.5134275 C129.916941,75.8484122 129.783383,75.1166051 129.783383,74.32091 L129.783383,69.3783076 C129.783383,68.5971325 129.916941,67.8740374 130.178252,67.2061181 C130.442466,66.5411029 130.79959,65.9719195 131.258336,65.4985681 C131.714177,65.0252166 132.257123,64.6564091 132.887171,64.3863374 C133.514317,64.1162657 134.199531,63.9797778 134.931201,63.9797778 C135.424787,63.9797778 135.874822,64.0320498 136.278402,64.1278817 C136.684885,64.2237135 137.05072,64.3485854 137.381713,64.4966892 C137.712706,64.6476971 138.000148,64.8190329 138.246941,65.0019847 C138.493735,65.1907444 138.69988,65.3678882 138.865376,65.5305121 C139.178949,65.8470477 139.178949,66.1635833 138.865376,66.477215 L138.348562,66.9941264 C138.200486,67.1422302 138.055313,67.2235421 137.921755,67.2293501 C137.785293,67.2380621 137.628506,67.1567502 137.448492,66.9941264 C137.253961,66.8140786 136.957809,66.6020868 136.560036,66.3639591 C136.165167,66.1229274 135.622222,66.0038635 134.931201,66.0038635 C134.452131,66.0038635 134.028227,66.0880794 133.662393,66.2623192 C133.293654,66.436559 132.980082,66.6746867 132.718771,66.9825104 C132.454557,67.290334 132.257123,67.6475256 132.123564,68.0627971 C131.987102,68.4722607 131.920322,68.9107642 131.920322,69.3783076 L131.920322,74.32091 C131.920322,75.3256928 132.184536,76.1388119 132.718771,76.7602672 C133.250103,77.3817225 133.987579,77.6953541 134.931201,77.6953541 C135.590284,77.6953541 136.15065,77.5704823 136.606492,77.3207385 C137.062333,77.0738988 137.433975,76.8241551 137.718513,76.5686034 C137.852072,76.4495395 138.008858,76.3827476 138.177258,76.3682276 C138.351465,76.3537077 138.514059,76.4204996 138.662135,76.5686034 L139.11217,77.0187229 Z" id="Fill-264"></path>
                <path d="M141.696241,79.4914761 C141.487192,79.4914761 141.321695,79.4333961 141.202654,79.3114283 C141.083612,79.1923644 141.02264,79.0268366 141.02264,78.8177488 L141.02264,64.8785648 C141.02264,64.672381 141.083612,64.5068532 141.202654,64.3877894 C141.321695,64.2658215 141.487192,64.2048376 141.696241,64.2048376 L149.114557,64.2048376 C149.320702,64.2048376 149.486199,64.2658215 149.60524,64.3877894 C149.727185,64.5068532 149.788157,64.672381 149.788157,64.8785648 L149.788157,65.555196 C149.788157,65.7642838 149.727185,65.9269076 149.60524,66.0488755 C149.486199,66.1679393 149.320702,66.2289233 149.114557,66.2289233 L143.380242,66.2289233 C143.232166,66.2289233 143.156676,66.3044272 143.156676,66.452531 L143.156676,70.4977984 C143.156676,70.6488062 143.232166,70.7243101 143.380242,70.7243101 L148.664522,70.7243101 C148.873571,70.7243101 149.036164,70.785294 149.158109,70.9043579 C149.27715,71.0234218 149.335219,71.1889496 149.335219,71.4009413 L149.335219,72.0717646 C149.335219,72.2837563 149.27715,72.4492841 149.158109,72.568348 C149.036164,72.6903158 148.873571,72.7483958 148.664522,72.7483958 L143.380242,72.7483958 C143.232166,72.7483958 143.156676,72.8238997 143.156676,72.9749075 L143.156676,77.2437826 C143.156676,77.3918865 143.232166,77.4673904 143.380242,77.4673904 L149.561688,77.4673904 C149.770737,77.4673904 149.936233,77.5283743 150.055275,77.6474382 C150.17722,77.769406 150.238192,77.9320298 150.238192,78.1440216 L150.238192,78.8177488 C150.238192,79.0268366 150.17722,79.1923644 150.055275,79.3114283 C149.936233,79.4333961 149.770737,79.4914761 149.561688,79.4914761 L141.696241,79.4914761 Z" id="Fill-265"></path>
                <path d="M163.047055,67.0606279 C163.003503,66.8951001 162.928014,66.8137882 162.820586,66.8137882 C162.718965,66.8137882 162.640572,66.8951001 162.59702,67.0606279 L160.799784,73.1532129 C160.753329,73.3303567 160.823012,73.4232846 161.000122,73.4232846 L164.643953,73.4232846 C164.823967,73.4232846 164.890746,73.3303567 164.847195,73.1532129 L163.047055,67.0606279 Z M167.341259,79.4897337 C166.934776,79.4897337 166.679272,79.3125899 166.574748,78.9495903 L165.584671,75.670978 C165.541119,75.5228742 165.436595,75.4444663 165.271098,75.4444663 L160.372977,75.4444663 C160.20748,75.4444663 160.102956,75.5228742 160.059404,75.670978 L159.069328,78.9495903 C158.964804,79.3125899 158.7093,79.4897337 158.302817,79.4897337 L157.202409,79.4897337 C156.769795,79.4897337 156.613009,79.2835499 156.729147,78.8624704 L161.226592,64.8129345 C161.299178,64.5748067 161.403702,64.4121829 161.52855,64.330871 C161.659206,64.2495591 161.824702,64.2059992 162.036654,64.2059992 L163.607421,64.2059992 C163.819373,64.2059992 163.987773,64.2495591 164.115525,64.330871 C164.240373,64.4121829 164.344898,64.5748067 164.417484,64.8129345 L168.914929,78.8624704 C169.031067,79.2835499 168.877184,79.4897337 168.441666,79.4897337 L167.341259,79.4897337 Z" id="Fill-266"></path>
                <path d="M178.10464,73.6468924 C178.10464,73.4958845 178.029151,73.4203806 177.878171,73.4203806 L175.567025,73.4203806 C175.355073,73.4203806 175.189576,73.3623007 175.070535,73.2432368 C174.94859,73.121269 174.890521,72.9557411 174.890521,72.7495574 L174.890521,72.0729262 C174.890521,71.8638384 174.94859,71.7012146 175.070535,71.5792467 C175.189576,71.4601829 175.355073,71.3991989 175.567025,71.3991989 L179.56798,71.3991989 C179.774125,71.3991989 179.939621,71.4601829 180.058663,71.5792467 C180.180608,71.7012146 180.238677,71.8638384 180.238677,72.0729262 L180.238677,74.6603872 C180.238677,75.4241383 180.116732,76.1152895 179.869938,76.7367448 C179.623145,77.3611041 179.271828,77.8925355 178.824696,78.331039 C178.374661,78.7753505 177.83462,79.1151181 177.207474,79.3561498 C176.574522,79.5942775 175.880597,79.7162454 175.11699,79.7162454 C174.382417,79.7162454 173.703009,79.5855655 173.081671,79.3213019 C172.460332,79.0599422 171.920291,78.6940386 171.461545,78.2206871 C171.008607,77.7473357 170.651483,77.1781523 170.395979,76.5131371 C170.140475,75.8452178 170.015627,75.1134107 170.015627,74.3206196 L170.015627,69.3751132 C170.015627,68.5968421 170.143379,67.873747 170.407593,67.2058277 C170.668903,66.5408125 171.028931,65.9687251 171.484773,65.4982777 C171.943518,65.0278302 172.486463,64.6561187 173.113609,64.386047 C173.746561,64.1188793 174.425969,63.9823914 175.160542,63.9823914 C175.654128,63.9823914 176.107066,64.0288554 176.507743,64.1246873 C176.914226,64.2263271 177.28006,64.348295 177.60815,64.4993028 C177.939144,64.6503107 178.229489,64.8158385 178.473379,65.0045983 C178.723075,65.193358 178.92922,65.3675978 179.094717,65.5331256 C179.40829,65.8467573 179.40829,66.1603889 179.094717,66.4740206 L178.577903,66.993836 C178.426923,67.1448438 178.284654,67.2203477 178.148192,67.2290597 C178.014633,67.2377717 177.857847,67.1593638 177.67493,66.993836 C177.483302,66.8108842 177.18715,66.6047004 176.789377,66.3636687 C176.394508,66.125541 175.851563,66.0035731 175.160542,66.0035731 C174.21692,66.0035731 173.479444,66.3172047 172.948112,66.935756 C172.416781,67.5572113 172.149663,68.3703304 172.149663,69.3751132 L172.149663,74.3206196 C172.149663,75.3254024 172.40807,76.1385215 172.924885,76.7628808 C173.441699,77.3814321 174.170465,77.6921597 175.11699,77.6921597 C176.136101,77.6921597 176.888095,77.41628 177.372971,76.8616167 C177.860751,76.3069533 178.10464,75.5867621 178.10464,74.7039471 L178.10464,73.6468924 Z" id="Fill-267"></path>
                <path d="M182.599182,79.4914761 C182.390134,79.4914761 182.221733,79.4333961 182.105595,79.3114283 C181.986554,79.1923644 181.922678,79.0268366 181.922678,78.8177488 L181.922678,64.8785648 C181.922678,64.672381 181.986554,64.5068532 182.105595,64.3877894 C182.221733,64.2658215 182.390134,64.2048376 182.599182,64.2048376 L190.017498,64.2048376 C190.223643,64.2048376 190.38914,64.2658215 190.508182,64.3877894 C190.630126,64.5068532 190.691099,64.672381 190.691099,64.8785648 L190.691099,65.555196 C190.691099,65.7642838 190.630126,65.9269076 190.508182,66.0488755 C190.38914,66.1679393 190.223643,66.2289233 190.017498,66.2289233 L184.283183,66.2289233 C184.135107,66.2289233 184.059618,66.3044272 184.059618,66.452531 L184.059618,70.4977984 C184.059618,70.6488062 184.135107,70.7243101 184.283183,70.7243101 L189.567464,70.7243101 C189.776512,70.7243101 189.939105,70.785294 190.06105,70.9043579 C190.180092,71.0234218 190.238161,71.1889496 190.238161,71.4009413 L190.238161,72.0717646 C190.238161,72.2837563 190.180092,72.4492841 190.06105,72.568348 C189.939105,72.6903158 189.776512,72.7483958 189.567464,72.7483958 L184.283183,72.7483958 C184.135107,72.7483958 184.059618,72.8238997 184.059618,72.9749075 L184.059618,77.2437826 C184.059618,77.3918865 184.135107,77.4673904 184.283183,77.4673904 L190.46463,77.4673904 C190.673678,77.4673904 190.839175,77.5283743 190.958216,77.6474382 C191.080161,77.769406 191.141134,77.9320298 191.141134,78.1440216 L191.141134,78.8177488 C191.141134,79.0268366 191.080161,79.1923644 190.958216,79.3114283 C190.839175,79.4333961 190.673678,79.4914761 190.46463,79.4914761 L182.599182,79.4914761 Z" id="Fill-268"></path>
                <path d="M202.264253,79.4914761 C202.055205,79.4914761 201.886805,79.4363001 201.759053,79.3230442 C201.631301,79.2097884 201.500646,79.0413566 201.367087,78.8177488 L195.656,68.8134803 C195.58051,68.6944164 195.502117,68.6508565 195.42082,68.6798964 C195.33662,68.7089364 195.295972,68.7844403 195.295972,68.9035042 L195.295972,78.8177488 C195.295972,79.0268366 195.237903,79.1923644 195.115958,79.3114283 C194.996916,79.4333961 194.83142,79.4914761 194.622371,79.4914761 L193.838439,79.4914761 C193.626488,79.4914761 193.460991,79.4333961 193.341949,79.3114283 C193.220004,79.1923644 193.161935,79.0268366 193.161935,78.8177488 L193.161935,64.8785648 C193.161935,64.672381 193.220004,64.5068532 193.341949,64.3877894 C193.460991,64.2658215 193.626488,64.2048376 193.838439,64.2048376 L194.712378,64.2048376 C194.938847,64.2048376 195.124668,64.2454935 195.275648,64.3268054 C195.426627,64.4139253 195.560186,64.5562212 195.679227,64.7682129 L201.140618,74.278802 C201.20159,74.3659219 201.271273,74.4036739 201.355473,74.3891539 C201.43677,74.3746339 201.477418,74.307842 201.477418,74.1858741 L201.477418,64.8785648 C201.477418,64.672381 201.535487,64.5068532 201.657432,64.3877894 C201.776473,64.2658215 201.94197,64.2048376 202.153922,64.2048376 L202.937854,64.2048376 C203.146902,64.2048376 203.312399,64.2658215 203.43144,64.3877894 C203.553385,64.5068532 203.611454,64.672381 203.611454,64.8785648 L203.611454,78.8177488 C203.611454,79.0268366 203.553385,79.1923644 203.43144,79.3114283 C203.312399,79.4333961 203.146902,79.4914761 202.937854,79.4914761 L202.264253,79.4914761 Z" id="Fill-269"></path>
                <path d="M214.063296,69.6007538 C214.063296,69.0751304 213.981999,68.6046829 213.816503,68.1865074 C213.651006,67.7654279 213.415826,67.4082363 213.116771,67.1178366 C212.817716,66.824533 212.463495,66.6038292 212.051205,66.4528214 C211.638915,66.3047176 211.185976,66.2292137 210.69239,66.2292137 L208.445119,66.2292137 C208.297043,66.2292137 208.21865,66.3047176 208.21865,66.4528214 L208.21865,77.244073 C208.21865,77.3921769 208.297043,77.4676808 208.445119,77.4676808 L210.69239,77.4676808 C211.185976,77.4676808 211.638915,77.3921769 212.051205,77.244073 C212.463495,77.0930652 212.817716,76.8752655 213.116771,76.5906738 C213.415826,76.3060821 213.651006,75.9546985 213.816503,75.533619 C213.981999,75.1183475 214.063296,74.636284 214.063296,74.0961406 L214.063296,69.6007538 Z M206.761118,79.4917665 C206.549166,79.4917665 206.383669,79.4336865 206.264627,79.3117187 C206.142683,79.1926548 206.084614,79.027127 206.084614,78.8151352 L206.084614,64.8788552 C206.084614,64.6726714 206.142683,64.5071436 206.264627,64.3880798 C206.383669,64.2661119 206.549166,64.205128 206.761118,64.205128 L210.69239,64.205128 C211.514066,64.205128 212.268963,64.3445198 212.951274,64.6203995 C213.630682,64.8962792 214.211372,65.2767027 214.690441,65.7587662 C215.172414,66.2350216 215.544056,66.807109 215.802463,67.4663162 C216.066677,68.1255235 216.197332,68.8370027 216.197332,69.6007538 L216.197332,74.0961406 C216.197332,74.8627958 216.066677,75.5713709 215.802463,76.2334822 C215.544056,76.8897854 215.172414,77.4589688 214.690441,77.9410322 C214.211372,78.4201917 213.630682,78.7977113 212.951274,79.0735909 C212.268963,79.3523746 211.514066,79.4917665 210.69239,79.4917665 L206.761118,79.4917665 Z" id="Fill-270"></path>
                <path d="M223.614487,67.0606279 C223.570935,66.8951001 223.495446,66.8137882 223.388018,66.8137882 C223.286397,66.8137882 223.210907,66.8951001 223.164452,67.0606279 L221.367216,73.1532129 C221.323665,73.3303567 221.390444,73.4232846 221.567554,73.4232846 L225.211385,73.4232846 C225.391399,73.4232846 225.458178,73.3303567 225.414626,73.1532129 L223.614487,67.0606279 Z M227.908691,79.4897337 C227.505111,79.4897337 227.249607,79.3125899 227.14218,78.9495903 L226.155006,75.670978 C226.108551,75.5228742 226.004027,75.4444663 225.83853,75.4444663 L220.940409,75.4444663 C220.774912,75.4444663 220.670388,75.5228742 220.626836,75.670978 L219.63676,78.9495903 C219.532235,79.3125899 219.276732,79.4897337 218.870249,79.4897337 L217.769841,79.4897337 C217.337227,79.4897337 217.18044,79.2835499 217.299482,78.8624704 L221.794024,64.8129345 C221.869513,64.5748067 221.971134,64.4121829 222.095982,64.330871 C222.226638,64.2495591 222.395038,64.2059992 222.601183,64.2059992 L224.174853,64.2059992 C224.386805,64.2059992 224.555205,64.2495591 224.682957,64.330871 C224.810709,64.4121829 224.912329,64.5748067 224.984916,64.8129345 L229.482361,78.8624704 C229.598499,79.2835499 229.444616,79.4897337 229.009098,79.4897337 L227.908691,79.4897337 Z" id="Fill-271"></path>
                <path d="M64.4034813,73.262984 L64.4034813,6.24745277 C64.4034813,5.41981372 63.9737706,4.70833453 63.1143492,4.10720722 C62.2578313,3.50607991 61.4013133,3.20696825 60.541892,3.20696825 C57.9665312,3.20696825 56.6773992,4.29306301 56.6773992,6.46815652 L56.6773992,44.9490164 C56.6773992,45.9218553 56.1692953,46.4097268 55.155991,46.4097268 C54.0642936,46.4097268 53.5184449,45.9218553 53.5184449,44.9461124 L53.5184449,6.36361263 C53.5184449,4.5602307 54.2210799,3.0762884 55.62635,1.90888174 C57.0287167,0.744379073 58.6691663,0.160675741 60.541892,0.160675741 C62.333321,0.160675741 63.9534464,0.724051096 65.3993649,1.8508018 C66.8423798,2.98045651 67.565339,4.41212687 67.565339,6.13710089 L67.565339,73.257176 C67.565339,74.9124541 67.09498,76.3615484 66.1600689,77.601555 C65.2309647,78.8415616 63.9447361,79.4630169 62.3129968,79.4630169 C60.1354089,79.4630169 58.4252764,77.8803387 57.1796961,74.7120783 L56.831282,74.0354471 L28.9552525,6.69757225 C28.1887416,4.74608649 27.0738165,3.77034361 25.6104774,3.77034361 C24.6900836,3.77034361 23.8626001,4.13043919 23.133834,4.83901438 C22.399261,5.55339756 22.0363297,6.35780464 22.0363297,7.25513961 C22.0363297,8.00727475 22.2482816,8.94526568 22.6750888,10.0691124 L46.9653568,70.3270434 C47.3544192,71.3056902 47.5489504,72.2814331 47.5489504,73.26008 C47.5489504,75.1389658 46.9450326,76.6984121 45.7371972,77.9413226 C44.5264583,79.1813292 42.9469811,79.7998805 40.9987658,79.7998805 C37.72077,79.7998805 35.4967268,78.2985142 34.3266362,75.2899737 L7.17646934,7.38001147 C6.39544112,5.42271771 5.65215776,4.44697483 4.9495227,4.44697483 C3.93621843,4.52247874 3.43101802,5.8728372 3.43101802,8.50095419 L3.43101802,73.1526321 C3.43101802,75.3306296 4.75789496,76.4167244 7.41164884,76.4167244 C9.9841061,76.4167244 11.2703347,75.4061335 11.2703347,73.3791439 L11.2703347,39.9802781 C11.2703347,38.9290313 11.8161834,38.4034079 12.9107843,38.4034079 C13.9240886,38.4034079 14.4321925,38.9290313 14.4321925,39.9802781 L14.4321925,73.3849519 C14.4321925,75.1883338 13.7295574,76.6519481 12.3242873,77.7757948 C10.9219207,78.8996415 9.2843745,79.4630169 7.41164884,79.4630169 C5.53892318,79.4630169 3.87814942,78.8618896 2.43513445,77.659635 C0.992119491,76.4602843 0.269160283,74.9560141 0.269160283,73.1555361 L0.269160283,8.16118658 C0.269160283,3.80519157 1.82250637,1.62429006 4.92339165,1.62429006 C6.16606852,1.62429006 7.17646934,2.08021754 7.95169066,2.9862645 C8.10267009,3.14017633 8.72691197,4.08107125 9.81280251,5.82056526 L10.4660789,7.14769174 L37.2997696,74.2561509 C37.9182046,75.6965332 39.2363712,76.4167244 41.2542694,76.4167244 C43.2663607,76.4167244 44.3116029,75.2202777 44.3899961,72.8331925 C44.3899961,71.6367459 40.6067999,61.8125251 33.043311,43.3634342 C32.0271033,40.958925 27.5790169,30.2054253 19.6903416,11.1058392 C19.1473963,9.75257675 18.8773754,8.50966618 18.8773754,7.38291547 C18.8773754,4.52247874 20.0503694,2.56808898 22.3876472,1.51393819 C23.5606413,0.988314793 24.6523387,0.724051096 25.665643,0.724051096 C28.3193968,0.724051096 30.3460054,2.26607333 31.7512755,5.3501178 L32.218731,6.36361263 L59.9553949,73.3733359 C60.0366915,73.8205514 60.3851056,74.4420066 61.0093475,75.2318937 C61.6364928,76.0217808 62.1794381,76.4167244 62.6468937,76.4167244 C63.8198877,76.3441245 64.4034813,75.2928777 64.4034813,73.262984" id="Fill-272"></path>
            </g>
        </g>
    </g>
</svg>