<?xml version="1.0" encoding="utf-8"?>
<!-- Generator: Adobe Illustrator 20.1.0, SVG Export Plug-In . SVG Version: 6.00 Build 0)  -->
<!DOCTYPE svg PUBLIC "-//W3C//DTD SVG 1.1//EN" "http://www.w3.org/Graphics/SVG/1.1/DTD/svg11.dtd" [
	<!ENTITY st0 "fill:#FFFFFF;">
	<!ENTITY st1 "fill:#313131;">
]>
<svg version="1.1" id="Layer_1" xmlns="http://www.w3.org/2000/svg" xmlns:xlink="http://www.w3.org/1999/xlink" x="0px" y="0px"
	 width="80px" height="80px" viewBox="0 0 80 80" style="enable-background:new 0 0 80 80;" xml:space="preserve">
<title>Group 6</title>
<desc>Created with Sketch.</desc>
<g id="Homepage">
	<g id="Homepage-MMVP_1AUG-Copy-5" transform="translate(-574.000000, -1425.000000)">
		<g id="Group-6" transform="translate(574.000000, 1425.000000)">
			<path id="Fill-2" style="&st0;" d="M80,40c0,22.1-17.9,40-40,40C17.9,80,0,62.1,0,40S17.9,0,40,0C62.1,0,80,17.9,80,40L80,40z"/>
			<path id="Fill-4" style="&st1;" d="M63.6,41.9c-0.3,0.8-0.8,1.5-1.3,2.3c-0.4-0.5-0.7-0.8-1-1.2c-1.1-1.6-2.7-2.2-4.6-2.1
				c-0.4,0-0.7,0.1-1.1,0.2c-0.4,0.1-0.8-0.1-0.7-0.6c0-0.4,0.1-0.8,0.2-1.2c0.2-0.9,0-1.9,0-2.8c0-1.6-0.9-2.9-1.3-4.3
				c-0.3-0.9-0.7-1.7-0.9-2.5c-0.2-0.7-0.1-1.5,0.4-2.1c0.6-0.7,1.4-0.9,2.2-0.5c1.7,0.8,3.1,2,4.1,3.6c0.5,0.9,0.7,1.8,0.8,2.8
				c0.1,1.6-0.1,3.1-0.7,4.5c-0.1,0.2-0.2,0.4-0.3,0.6c-0.2,0.4-0.1,0.7,0.3,0.9c0.3,0.2,0.6,0.2,0.8-0.3c0.3-0.6,0.6-1.2,0.8-1.9
				c0.3-1,0.4-2.1,0.5-3.2c0-0.2,0.1-0.3,0.1-0.5c0.6,0.4,1,0.8,1.3,1.4C64.5,37.2,64.6,39.5,63.6,41.9 M59.7,49.2
				c-1,0.9-2.4,1.3-3.7,1.7c-0.9,0.2-1.9,0.4-2.8,0.6c-0.9,0.1-1.8,0.1-2.6-0.7c-0.5-0.5-0.5-1.4,0-1.9c1.1-1.2,2.5-1.8,4.2-1.8
				c0.5,0,0.9-0.1,1.4-0.2c0.1,0,0.3-0.1,0.4-0.2c0.1-0.2,0.3-0.4,0.2-0.6c0-0.1-0.3-0.3-0.5-0.3c-0.8,0-1.7-0.1-2.5,0.1
				c-0.9,0.2-1.7,0.5-2.6,0.8c-0.3,0.1-0.6,0.4-0.8,0.6c-0.2,0.2-0.5,0.4-0.7,0.6c-0.8,0.7-0.9,1.6-0.6,2.7c0.4,1.3,1.4,1.8,2.6,2.1
				c1.1,0.2,1,0.3,1.2,1.1c0.4,1.7,0.9,3.3,1.3,5c0.1,0.3,0.1,0.6,0.2,0.9c0,0.1,0,0.3-0.1,0.4c-0.1,0.2-0.3,0.3-0.5,0.5
				c-0.3-0.3-0.5-0.7-0.8-1c-1.6-2.3-3.7-4-6.2-5.2c-0.6-0.3-1.2-0.6-1.8-0.9c-1.1-0.5-1.5-1-2.2-2.4c0.3-0.2,0.6-0.3,0.9-0.5
				c0.1-0.1,0.3-0.2,0.4-0.3c0.2-0.2,0.4-0.4,0.1-0.7c-0.2-0.3-0.5-0.4-0.9-0.2c-0.4,0.2-0.7,0.4-1.1,0.5c-0.8,0.4-1.6,0.9-2.4,1.3
				c-0.6,0.3-1.1,0.5-1.7,0.6c-1.2,0.2-2.5,0.5-3.7,0c-0.3-0.1-0.6-0.1-0.9-0.2c-0.3-0.1-0.5-0.1-0.8-0.2c-1.2-0.5-2.2-1.2-3.1-2.1
				c-0.4-0.4-0.4-0.7,0.1-1.1c1.2-0.8,1.6-2,1.4-3.4c0-0.3,0-0.5,0.4-0.5c0.3,0,0.6-0.1,0.8-0.3c1.4-0.8,2.7-1.7,3.8-3
				c0.7-0.8,1.2-1.8,1.5-2.8c0.3-0.8,0.5-1,1.4-0.9c1.3,0.1,2.5-0.1,3.6-0.7c0.9-0.5,1.7-0.3,2.5,0.2c1.5,0.9,2,2.3,2.4,3.9
				c0.1,0.4,0.3,0.6,0.7,0.6c0.3,0,0.4-0.2,0.4-0.5c0-0.3,0-0.7,0-1c-0.3-1.4-0.9-2.5-2-3.4c-0.5-0.4-1-0.8-1.5-1.2
				c-0.1-0.1-0.1-0.3-0.1-0.4c0.3-1.1,0.6-2.2,0.9-3.4c0.2-0.8,0.1-1.5,0.2-2.3c0.1-1,0.3-1.9,0.9-2.7c0.6-0.7,1.3-1.1,2.2-1.2
				c0.9-0.1,1.8,0.1,2.7,0.3c0.3,0.1,0.6,0.2,0.9,0.3c-0.1,0.3-0.2,0.6-0.4,0.8c-0.6,0.5-0.8,1.2-1,2c-0.1,0.3,0,0.7,0.1,1.1
				c0,0.4,0,0.8,0.2,1.1c0.2,0.6,0.4,1.3,0.8,1.9c0.8,1.3,1.1,2.8,1.3,4.3c0.2,1.3-0.1,2.5-0.4,3.7c-0.3,1.3-1.1,2.4-2.3,3
				c-1.3,0.6-2.6,1.2-3.9,1.7c-0.1,0-0.2,0.1-0.3,0.1c-0.8,0.1-1.6,0.1-2.4,0.2c-0.9,0.1-1.8-0.1-2.7-0.4c-0.9-0.3-1.7-0.6-2.6-0.9
				c-0.5-0.2-0.9-0.5-1.3-0.8c-0.1-0.1-0.3-0.2-0.4-0.2c-0.2,0-0.5,0-0.6,0.1c-0.1,0.2-0.2,0.5-0.1,0.7c0.1,0.3,0.4,0.5,0.6,0.6
				c0.3,0.2,0.6,0.3,0.9,0.5c0.5,0.4,0.5,0.9,0.1,1.3c-0.6,0.4-1.1,0.9-1.7,1.3c-0.5,0.3-1,0.3-1.6,0.4c-0.4,0.1-0.7,0.2-0.9,0.5
				c-0.1,0.1-0.1,0.3,0,0.4c0.2,0.2,0.5,0.4,0.7,0.4c1.8-0.2,3.4-0.8,4.6-2.2c0.1-0.1,0.2-0.2,0.3-0.3c0.5-0.6,1.2-0.7,1.9-0.5
				c1.6,0.4,3.3,0.4,5,0.2c2.4-0.4,4.5-1.3,6.5-2.8c0.4-0.3,0.9-0.6,1.4-0.9c1.5-1.1,3.9-0.7,5,0.1c0.7,0.5,1,1.3,1.4,2.1
				C61.6,46.6,60.9,48.1,59.7,49.2 M28,47.7c-0.7,0.3-1.4,0.4-2.1,0.4c-0.3,0-0.6,0.1-0.9,0.1c-1.2,0.2-2.3,0-3.5-0.2
				c-2.9-0.7-4.7-2.5-5.6-5.3c-0.4-1.3-0.1-2.7,0.4-3.9c0.2-0.5,0.4-0.9,0.7-1.5c0.3,0.3,0.6,0.6,0.9,0.9c0.7,0.8,1.6,1.2,2.6,1.3
				c2.1,0.2,4.1-0.2,5.7-1.8c0.3-0.3,0.7-0.2,1-0.1c0.8,0.4,1.7,0.6,2.6,0.4c1.8-0.3,3.2-1.2,4-2.8c0.2-0.4,0.1-0.7-0.2-0.9
				c-0.3-0.2-0.5-0.1-0.9,0.2c-0.6,0.7-1.2,1.5-2,1.9c-0.8,0.4-1.6,0.5-2.4,0.3c-0.6-0.2-0.8-0.5-0.4-1c0.9-1.3,1.8-2.5,2.7-3.8
				c0.2-0.3,0.2-0.5-0.2-0.8c-0.4-0.3-0.5-0.2-0.8,0.1c-1.2,1.6-2.4,3.3-3.8,4.9c-1.2,1.4-2.8,2.3-4.7,2.1c-0.7-0.1-1.4-0.2-2.1-0.6
				C18.2,37,17.9,36,18.2,35c0.5-1.5,1.4-2.8,2.6-3.9c1.2-1.2,2.7-2,4.3-2.7c0.4-0.2,0.8-0.2,1.1,0.1c-0.9,1.9-2.3,3.4-4,4.7
				c0.3,0.9,0.8,1.1,1.5,0.4c0.8-0.9,1.7-1.7,2.5-2.6c0.8-0.9,1.4-1.9,1.7-3c0.5-1.8,1.8-2.7,3.5-3.1c0.4-0.1,0.9-0.1,1.4-0.1
				c1.4,0,2.2,1.1,2.5,2.3c0.2,0.8,0.2,1.6-0.2,2.3c-0.2,0.4,0,0.5,0.3,0.7c0.3,0.2,0.5,0.2,0.7-0.1c0.3-0.4,0.6-0.8,0.6-1.4
				c0-1.2,0.5-1.8,1.7-1.9c1.3-0.1,2.6-0.2,3.9-0.4c0.2,0,0.4-0.3,0.6-0.4c0.1-0.1-0.1-0.3-0.2-0.4c-0.2-0.3-0.5-0.4-0.9-0.4
				c-1.5,0-3,0.2-4.4,0.7c-0.5,0.2-0.9,0-1.2-0.4c-0.3-0.4-0.5-0.8-0.8-1.2c4.3-2.2,8.7-2,13.3-0.7c-0.4,0.2-0.7,0.4-1,0.6
				c-1.3,0.6-1.9,1.7-2.3,3c-0.3,0.9-0.4,1.7-0.4,2.6c0,0.9-0.2,1.8-0.4,2.7c-0.3,1.5-1.3,2.4-2.7,2.9c-1,0.4-2.1,0.5-3.2,0.3
				c0-0.5,0.1-1,0.1-1.5c0-0.4,0-0.8,0-1.2c0-0.3,0-0.6-0.4-0.6c-0.4-0.1-0.8,0.1-0.9,0.5c0,0.2,0,0.4-0.1,0.5
				c-0.2,2.6-0.9,4.9-2.5,7c-0.7,0.9-1.5,1.6-2.5,2c-0.3,0.1-0.5,0.3-0.8,0.4C31,43,30.5,43,30,42.9c-0.2-0.1-0.5-0.1-0.7-0.1
				c-1.4,0.1-2.7,0.2-4.1,0.3c-0.8,0-1.6,0.3-2.4-0.1c-0.5-0.2-0.9-0.5-1.4-0.8c-0.3-0.1-0.6-0.3-1-0.3c-0.2,0-0.4,0.1-0.5,0.3
				c-0.1,0.1,0.1,0.4,0.2,0.5c0.4,0.4,0.8,0.8,1.2,1.2c0.8,0.6,1.7,0.7,2.6,0.6c1.5-0.1,3.1-0.3,4.6-0.5c0.5-0.1,0.9,0,1.2,0.4
				c0.4,0.5,0.4,1.1,0.2,1.6C29.5,46.8,28.8,47.3,28,47.7 M65.8,38.7c0-0.5-0.1-1-0.1-1.4c-0.1-1.1-0.3-2.3-1.1-3.2
				c-0.5-0.6-1-1.2-1.5-1.8c-0.6-0.8-1.3-1.5-1.8-2.3c-0.7-1-1.4-1.9-2.3-2.7c-1.6-1.4-3.6-2.2-5.5-3.1c-0.9-0.4-2-0.6-2.9-1.2
				c-2.4-1.5-5-2-7.8-2c-1.4,0-2.9,0.2-4.3,0.4c-1.6,0.2-3.1,0.7-4.3,1.8c-0.1,0.1-0.4,0.1-0.5,0.1c-0.5,0-1.1-0.1-1.6-0.1
				c-1.6,0-3,0.6-4.1,1.8c-0.7,0.7-1.5,1.3-2.4,1.6c-1.9,0.6-3.7,1.6-5.3,2.9c-1.4,1.2-2.5,2.6-3.3,4.3c-0.4,0.8-0.7,1.7-1.1,2.5
				c-0.6,1-1.1,2.1-1.4,3.2c-0.3,1-0.4,2.1-0.1,3.1c0.2,0.7,0.5,1.3,0.7,2c0.6,1.7,1.8,3,3.4,3.9c0.4,0.2,0.9,0.4,1.3,0.6
				c1.2,0.6,2.5,0.9,3.8,0.9c1.3,0,2.5-0.3,3.8-0.4c0.2,0,0.4,0,0.6,0.2c0.2,0.3,0.5,0.5,0.8,0.8c2.6,2.5,5.7,3.3,9.2,2.7
				c1-0.2,1.9-0.5,2.8-0.8c0.5-0.2,0.8-0.1,1.2,0.3c0.3,0.3,0.6,0.7,1,1c0.9,0.9,1.9,1.6,3.1,2.1c1.5,0.6,2.8,1.4,3.9,2.6
				c1,1,2,2,3,3c0.5,0.5,1.2,0.6,1.8,0.4c1.2-0.3,1.7-1.4,1.3-2.7c-0.2-0.9-0.5-1.8-0.8-2.7c-0.2-0.6-0.3-1.3-0.5-1.9
				c-0.5-1.1-0.1-1.5,0.7-1.7c0,0,0.1,0,0.1-0.1c1.3-0.3,2.6-0.7,3.8-1.4c1.1-0.6,2.1-1.3,2.7-2.5c0.3-0.6,0.8-1.3,0.8-2
				c0-0.8,0.3-1.5,0.9-2c0.4-0.4,0.8-0.9,1.1-1.4C65.4,41.9,65.8,40.4,65.8,38.7"/>
		</g>
	</g>
</g>
</svg>
