<?xml version="1.0" encoding="utf-8"?>
<!-- Generator: Adobe Illustrator 20.1.0, SVG Export Plug-In . SVG Version: 6.00 Build 0)  -->
<!DOCTYPE svg PUBLIC "-//W3C//DTD SVG 1.1//EN" "http://www.w3.org/Graphics/SVG/1.1/DTD/svg11.dtd" [
	<!ENTITY st0 "enable-background:new    ;">
	<!ENTITY st1 "fill:#313131;">
]>
<svg version="1.1" id="Layer_1" xmlns="http://www.w3.org/2000/svg" xmlns:xlink="http://www.w3.org/1999/xlink" x="0px" y="0px"
	 width="368px" height="80px" viewBox="0 0 368 80" style="enable-background:new 0 0 368 80;" xml:space="preserve">
<title>Group</title>
<desc>Created with Sketch.</desc>
<g id="Homepage">
	<g id="Homepage-MMVP_1AUG-Copy-5" transform="translate(-693.000000, -1455.000000)">
		<g id="Group" transform="translate(693.000000, 1441.000000)">
			<g style="&st0;">
				<path d="M18.8,46.1h-4.1l-2.3-9c-0.1-0.3-0.2-1-0.4-2s-0.3-1.7-0.4-2c0,0.4-0.2,1.1-0.4,2s-0.3,1.6-0.4,2l-2.3,9H4.4L0,29h3.6
					l2.2,9.4c0.4,1.7,0.7,3.2,0.8,4.5c0-0.4,0.2-1.1,0.3-2.1s0.3-1.7,0.5-2.2L9.9,29h3.4l2.5,9.6c0.1,0.4,0.2,1.1,0.4,2
					s0.3,1.6,0.4,2.3c0.1-0.6,0.2-1.4,0.4-2.3s0.3-1.6,0.5-2.2l2.2-9.4h3.6L18.8,46.1z"/>
				<path d="M35.2,46.1h-9.9V29h9.9v3H29v3.8h5.8v3H29v4.4h6.2V46.1z"/>
				<path d="M38.8,46.1V29h3.6v14.1h6.9v3H38.8z"/>
				<path d="M59.6,31.8c-1.4,0-2.4,0.5-3.2,1.5s-1.1,2.5-1.1,4.3c0,3.8,1.4,5.7,4.3,5.7c1.2,0,2.7-0.3,4.4-0.9v3
					c-1.4,0.6-3,0.9-4.7,0.9c-2.5,0-4.4-0.8-5.7-2.3s-2-3.7-2-6.5c0-1.8,0.3-3.3,1-4.7s1.6-2.4,2.8-3.1s2.6-1.1,4.3-1.1
					c1.7,0,3.3,0.4,5,1.2l-1.2,3c-0.6-0.3-1.3-0.6-1.9-0.8S60.3,31.8,59.6,31.8z"/>
				<path d="M83.2,37.6c0,2.8-0.7,5-2.1,6.5s-3.4,2.3-6,2.3s-4.6-0.8-6-2.3s-2.1-3.7-2.1-6.6s0.7-5,2.1-6.5s3.4-2.3,6.1-2.3
					s4.6,0.8,6,2.3S83.2,34.7,83.2,37.6z M70.7,37.6c0,1.9,0.4,3.4,1.1,4.3s1.8,1.5,3.3,1.5c2.9,0,4.3-1.9,4.3-5.8
					c0-3.9-1.4-5.8-4.3-5.8c-1.4,0-2.5,0.5-3.3,1.5S70.7,35.6,70.7,37.6z"/>
				<path d="M94,46.1l-4.1-13.4h-0.1c0.1,2.7,0.2,4.6,0.2,5.5v8h-3.2V29h4.9l4.1,13.1h0.1l4.3-13.1h4.9v17.1h-3.4V38
					c0-0.4,0-0.8,0-1.3s0.1-1.8,0.2-4h-0.1l-4.4,13.4H94z"/>
				<path d="M119.2,46.1h-9.9V29h9.9v3H113v3.8h5.8v3H113v4.4h6.2V46.1z"/>
				<path d="M135.7,46.1H132V32h-4.7v-3h12.9v3h-4.7V46.1z"/>
				<path d="M158.5,37.6c0,2.8-0.7,5-2.1,6.5s-3.4,2.3-6,2.3s-4.6-0.8-6-2.3s-2.1-3.7-2.1-6.6s0.7-5,2.1-6.5s3.4-2.3,6.1-2.3
					s4.6,0.8,6,2.3S158.5,34.7,158.5,37.6z M146,37.6c0,1.9,0.4,3.4,1.1,4.3s1.8,1.5,3.3,1.5c2.9,0,4.3-1.9,4.3-5.8
					c0-3.9-1.4-5.8-4.3-5.8c-1.4,0-2.5,0.5-3.3,1.5S146,35.6,146,37.6z"/>
				<path d="M174.9,46.1h-3.6V32h-4.7v-3h12.9v3h-4.7V46.1z"/>
				<path d="M196.2,46.1h-3.6v-7.4h-6.8v7.4h-3.6V29h3.6v6.7h6.8V29h3.6V46.1z"/>
				<path d="M210.4,46.1h-9.9V29h9.9v3h-6.2v3.8h5.8v3h-5.8v4.4h6.2V46.1z"/>
				<path d="M220.2,46.1V29h3.6v17.1H220.2z"/>
				<path d="M242.4,37.4c0,2.8-0.8,5-2.4,6.5s-3.9,2.2-7,2.2h-4.9V29h5.4c2.8,0,5,0.7,6.5,2.2S242.4,34.8,242.4,37.4z M238.6,37.5
					c0-3.7-1.6-5.5-4.9-5.5h-1.9v11.2h1.6C236.9,43.1,238.6,41.3,238.6,37.5z"/>
				<path d="M255.8,46.1h-9.9V29h9.9v3h-6.2v3.8h5.8v3h-5.8v4.4h6.2V46.1z"/>
				<path d="M269.9,46.1l-1.2-4.1h-6.2l-1.2,4.1h-3.9l6-17.2h4.4l6.1,17.2H269.9z M267.8,39c-1.1-3.7-1.8-5.8-1.9-6.3
					s-0.2-0.9-0.3-1.1c-0.3,1-1,3.5-2.2,7.4H267.8z"/>
				<path d="M286.1,41.4c0,1.5-0.6,2.8-1.7,3.7s-2.7,1.3-4.6,1.3c-1.8,0-3.4-0.3-4.9-1V42c1.2,0.5,2.1,0.9,2.9,1.1s1.5,0.3,2.2,0.3
					c0.8,0,1.4-0.2,1.8-0.5s0.6-0.8,0.6-1.4c0-0.3-0.1-0.6-0.3-0.9s-0.5-0.5-0.8-0.8s-1.1-0.6-2.2-1.2c-1-0.5-1.8-1-2.4-1.4
					s-0.9-1-1.3-1.6s-0.5-1.3-0.5-2.1c0-1.5,0.5-2.7,1.5-3.6s2.4-1.3,4.3-1.3c0.9,0,1.7,0.1,2.5,0.3s1.7,0.5,2.5,0.9l-1.2,2.8
					c-0.9-0.4-1.7-0.6-2.3-0.8s-1.2-0.2-1.8-0.2c-0.7,0-1.2,0.2-1.6,0.5s-0.6,0.7-0.6,1.3c0,0.3,0.1,0.6,0.2,0.8s0.4,0.5,0.7,0.7
					s1.1,0.6,2.3,1.2c1.6,0.8,2.7,1.5,3.3,2.3S286.1,40.3,286.1,41.4z"/>
				<path d="M295.4,29h5.3c2.4,0,4.2,0.3,5.3,1s1.6,1.8,1.6,3.3c0,1-0.2,1.9-0.7,2.5s-1.1,1.1-1.9,1.2v0.1c1.1,0.2,1.9,0.7,2.3,1.4
					s0.7,1.5,0.7,2.6c0,1.6-0.6,2.8-1.7,3.7s-2.7,1.3-4.6,1.3h-6.4V29z M299,35.8h2.1c1,0,1.7-0.2,2.1-0.5s0.7-0.8,0.7-1.5
					c0-0.7-0.2-1.1-0.7-1.4S302,32,300.9,32H299V35.8z M299,38.7v4.5h2.4c1,0,1.7-0.2,2.2-0.6s0.7-1,0.7-1.8c0-1.4-1-2.1-3-2.1H299z
					"/>
				<path d="M327.1,37.6c0,2.8-0.7,5-2.1,6.5s-3.4,2.3-6,2.3s-4.6-0.8-6-2.3s-2.1-3.7-2.1-6.6s0.7-5,2.1-6.5s3.4-2.3,6.1-2.3
					s4.6,0.8,6,2.3S327.1,34.7,327.1,37.6z M314.6,37.6c0,1.9,0.4,3.4,1.1,4.3s1.8,1.5,3.3,1.5c2.9,0,4.3-1.9,4.3-5.8
					c0-3.9-1.4-5.8-4.3-5.8c-1.4,0-2.5,0.5-3.3,1.5S314.6,35.6,314.6,37.6z"/>
				<path d="M346.2,37.6c0,2.8-0.7,5-2.1,6.5s-3.4,2.3-6,2.3s-4.6-0.8-6-2.3s-2.1-3.7-2.1-6.6s0.7-5,2.1-6.5s3.4-2.3,6.1-2.3
					s4.6,0.8,6,2.3S346.2,34.7,346.2,37.6z M333.7,37.6c0,1.9,0.4,3.4,1.1,4.3s1.8,1.5,3.3,1.5c2.9,0,4.3-1.9,4.3-5.8
					c0-3.9-1.4-5.8-4.3-5.8c-1.4,0-2.5,0.5-3.3,1.5S333.7,35.6,333.7,37.6z"/>
				<path d="M357,46.1l-4.1-13.4h-0.1c0.1,2.7,0.2,4.6,0.2,5.5v8h-3.2V29h4.9l4.1,13.1h0.1l4.3-13.1h4.9v17.1h-3.4V38
					c0-0.4,0-0.8,0-1.3s0.1-1.8,0.2-4h-0.1l-4.4,13.4H357z"/>
			</g>
			<g style="&st0;">
				<path style="&st1;" d="M1.6,77.1V64.3h2.7v12.8H1.6z"/>
				<path style="&st1;" d="M19,77.1h-3.5l-5.6-9.7H9.8c0.1,1.7,0.2,2.9,0.2,3.7v6H7.6V64.3H11l5.6,9.6h0.1c-0.1-1.7-0.1-2.9-0.1-3.5
					v-6.1H19V77.1z"/>
				<path style="&st1;" d="M33.6,77.1h-3.5l-5.6-9.7h-0.1c0.1,1.7,0.2,2.9,0.2,3.7v6h-2.4V64.3h3.4l5.6,9.6h0.1
					c-0.1-1.7-0.1-2.9-0.1-3.5v-6.1h2.5V77.1z"/>
				<path style="&st1;" d="M48.5,70.7c0,2.1-0.5,3.8-1.6,4.9s-2.6,1.7-4.5,1.7s-3.5-0.6-4.5-1.7s-1.6-2.8-1.6-4.9s0.5-3.8,1.6-4.9
					s2.6-1.7,4.5-1.7s3.5,0.6,4.5,1.7S48.5,68.6,48.5,70.7z M39.1,70.7c0,1.4,0.3,2.5,0.8,3.2s1.4,1.1,2.4,1.1
					c2.2,0,3.3-1.4,3.3-4.3c0-2.9-1.1-4.3-3.2-4.3c-1.1,0-1.9,0.4-2.5,1.1C39.4,68.2,39.1,69.3,39.1,70.7z"/>
				<path style="&st1;" d="M58.5,64.3h2.8l-4.4,12.8h-3l-4.4-12.8h2.8l2.4,7.6c0.1,0.5,0.3,1,0.4,1.6s0.2,1,0.3,1.3
					c0.1-0.5,0.3-1.5,0.7-2.8L58.5,64.3z"/>
				<path style="&st1;" d="M70.7,77.1l-0.9-3.1h-4.7l-0.9,3.1h-2.9l4.5-12.9h3.3l4.6,12.9H70.7z M69.2,71.8
					c-0.9-2.8-1.3-4.3-1.5-4.7s-0.2-0.7-0.2-0.9c-0.2,0.8-0.7,2.6-1.7,5.6H69.2z"/>
				<path style="&st1;" d="M80.2,77.1h-2.7V66.6H74v-2.3h9.7v2.3h-3.5V77.1z"/>
				<path style="&st1;" d="M85.7,77.1V64.3h2.7v12.8H85.7z"/>
				<path style="&st1;" d="M103.3,70.7c0,2.1-0.5,3.8-1.6,4.9s-2.6,1.7-4.5,1.7s-3.5-0.6-4.5-1.7s-1.6-2.8-1.6-4.9s0.5-3.8,1.6-4.9
					s2.6-1.7,4.5-1.7s3.5,0.6,4.5,1.7S103.3,68.6,103.3,70.7z M94,70.7c0,1.4,0.3,2.5,0.8,3.2s1.4,1.1,2.4,1.1
					c2.2,0,3.3-1.4,3.3-4.3c0-2.9-1.1-4.3-3.2-4.3c-1.1,0-1.9,0.4-2.5,1.1C94.2,68.2,94,69.3,94,70.7z"/>
				<path style="&st1;" d="M117.4,77.1h-3.5l-5.6-9.7h-0.1c0.1,1.7,0.2,2.9,0.2,3.7v6H106V64.3h3.4l5.6,9.6h0.1
					c-0.1-1.7-0.1-2.9-0.1-3.5v-6.1h2.5V77.1z"/>
				<path style="&st1;" d="M120,75.9c0-0.5,0.1-0.9,0.4-1.1s0.6-0.4,1.2-0.4c0.5,0,0.9,0.1,1.1,0.4s0.4,0.6,0.4,1.1
					c0,0.5-0.1,0.8-0.4,1.1c-0.3,0.3-0.6,0.4-1.1,0.4c-0.5,0-0.9-0.1-1.1-0.4C120.2,76.7,120,76.4,120,75.9z"/>
				<path style="&st1;" d="M130.6,69.9h5.1v6.7c-0.8,0.3-1.6,0.5-2.3,0.6c-0.7,0.1-1.5,0.2-2.2,0.2c-1.9,0-3.4-0.6-4.4-1.7
					s-1.5-2.8-1.5-4.9c0-2.1,0.6-3.7,1.8-4.9s2.8-1.7,4.9-1.7c1.3,0,2.6,0.3,3.8,0.8l-0.9,2.2c-0.9-0.5-1.9-0.7-2.9-0.7
					c-1.2,0-2.1,0.4-2.8,1.2s-1.1,1.9-1.1,3.2c0,1.4,0.3,2.5,0.9,3.2c0.6,0.7,1.4,1.1,2.5,1.1c0.6,0,1.1-0.1,1.7-0.2v-2.7h-2.4V69.9
					z"/>
				<path style="&st1;" d="M150.5,70.7c0,2.1-0.5,3.8-1.6,4.9s-2.6,1.7-4.5,1.7s-3.5-0.6-4.5-1.7s-1.6-2.8-1.6-4.9s0.5-3.8,1.6-4.9
					s2.6-1.7,4.5-1.7s3.5,0.6,4.5,1.7S150.5,68.6,150.5,70.7z M141.1,70.7c0,1.4,0.3,2.5,0.8,3.2s1.4,1.1,2.4,1.1
					c2.2,0,3.3-1.4,3.3-4.3c0-2.9-1.1-4.3-3.2-4.3c-1.1,0-1.9,0.4-2.5,1.1C141.4,68.2,141.1,69.3,141.1,70.7z"/>
				<path style="&st1;" d="M160.5,64.3h2.8l-4.4,12.8h-3l-4.4-12.8h2.8l2.4,7.6c0.1,0.5,0.3,1,0.4,1.6s0.2,1,0.3,1.3
					c0.1-0.5,0.3-1.5,0.7-2.8L160.5,64.3z"/>
				<path style="&st1;" d="M164.2,75.9c0-0.5,0.1-0.9,0.4-1.1s0.6-0.4,1.2-0.4c0.5,0,0.9,0.1,1.1,0.4s0.4,0.6,0.4,1.1
					c0,0.5-0.1,0.8-0.4,1.1c-0.3,0.3-0.6,0.4-1.1,0.4c-0.5,0-0.9-0.1-1.1-0.4C164.4,76.7,164.2,76.4,164.2,75.9z"/>
				<path style="&st1;" d="M177.8,77.1l-0.9-3.1h-4.7l-0.9,3.1h-2.9l4.5-12.9h3.3l4.6,12.9H177.8z M176.2,71.8
					c-0.9-2.8-1.3-4.3-1.5-4.7s-0.2-0.7-0.2-0.9c-0.2,0.8-0.7,2.6-1.7,5.6H176.2z"/>
				<path style="&st1;" d="M192.8,64.3v8.3c0,0.9-0.2,1.8-0.6,2.5c-0.4,0.7-1,1.3-1.8,1.6s-1.8,0.6-2.8,0.6c-1.7,0-2.9-0.4-3.8-1.3
					s-1.4-2-1.4-3.5v-8.3h2.7v7.9c0,1,0.2,1.7,0.6,2.2s1.1,0.7,2,0.7c0.9,0,1.5-0.2,1.9-0.7c0.4-0.5,0.6-1.2,0.6-2.2v-7.8H192.8z"/>
			</g>
		</g>
	</g>
</g>
</svg>
