<svg width="42" height="43" viewBox="0 0 42 43" xmlns="http://www.w3.org/2000/svg"><title>Tick</title><path d="M35.11 17.142c0 .465-.165.902-.493 1.23L19.77 33.22c-.329.328-.793.52-1.258.52-.438 0-.903-.192-1.23-.52l-9.9-9.899a1.714 1.714 0 0 1-.491-1.23c0-.465.164-.93.492-1.258l2.488-2.46a1.74 1.74 0 0 1 1.23-.52c.465 0 .903.191 1.231.52l6.18 6.179 11.156-11.129a1.74 1.74 0 0 1 1.23-.52c.465 0 .903.192 1.23.52l2.49 2.46c.327.329.491.794.491 1.259zm6.89 4.43c0-11.594-9.406-21-21-21s-21 9.406-21 21c0 11.593 9.406 21 21 21s21-9.407 21-21z" fill="#000" fill-rule="evenodd"/></svg>