<?xml version="1.0" encoding="UTF-8" standalone="no"?>
<svg width="24px" height="23px" viewBox="0 0 24 23" version="1.1" xmlns="http://www.w3.org/2000/svg" xmlns:xlink="http://www.w3.org/1999/xlink">
    <!-- Generator: Sketch 39.1 (31720) - http://www.bohemiancoding.com/sketch -->
    <title>icon_download</title>
    <desc>Created with Sketch.</desc>
    <defs></defs>
    <g id="Content-page" stroke="none" stroke-width="1" fill="none" fill-rule="evenodd">
        <g id="Download-icons" transform="translate(-104.000000, -417.000000)" fill="#313131">
            <path d="M122.461538,436.384615 C122.461538,436.889423 122.043269,437.307692 121.538462,437.307692 C121.033654,437.307692 120.615385,436.889423 120.615385,436.384615 C120.615385,435.879808 121.033654,435.461538 121.538462,435.461538 C122.043269,435.461538 122.461538,435.879808 122.461538,436.384615 L122.461538,436.384615 Z M126.153846,436.384615 C126.153846,436.889423 125.735577,437.307692 125.230769,437.307692 C124.725962,437.307692 124.307692,436.889423 124.307692,436.384615 C124.307692,435.879808 124.725962,435.461538 125.230769,435.461538 C125.735577,435.461538 126.153846,435.879808 126.153846,436.384615 L126.153846,436.384615 Z M128,433.153846 C128,432.389423 127.379808,431.769231 126.615385,431.769231 L119.923077,431.769231 L117.961538,433.730769 C117.427885,434.25 116.735577,434.538462 116,434.538462 C115.264423,434.538462 114.572115,434.25 114.038462,433.730769 L112.091346,431.769231 L105.384615,431.769231 C104.620192,431.769231 104,432.389423 104,433.153846 L104,437.769231 C104,438.533654 104.620192,439.153846 105.384615,439.153846 L126.615385,439.153846 C127.379808,439.153846 128,438.533654 128,437.769231 L128,433.153846 Z M123.3125,424.947115 C123.168269,424.615385 122.836538,424.384615 122.461538,424.384615 L118.769231,424.384615 L118.769231,417.923077 C118.769231,417.418269 118.350962,417 117.846154,417 L114.153846,417 C113.649038,417 113.230769,417.418269 113.230769,417.923077 L113.230769,424.384615 L109.538462,424.384615 C109.163462,424.384615 108.831731,424.615385 108.6875,424.947115 C108.543269,425.293269 108.615385,425.697115 108.889423,425.956731 L115.350962,432.418269 C115.524038,432.605769 115.769231,432.692308 116,432.692308 C116.230769,432.692308 116.475962,432.605769 116.649038,432.418269 L123.110577,425.956731 C123.384615,425.697115 123.456731,425.293269 123.3125,424.947115 L123.3125,424.947115 Z" id="icon_download"></path>
        </g>
    </g>
</svg>