<?xml version="1.0" encoding="utf-8"?>
<!-- Generator: Adobe Illustrator 19.2.1, SVG Export Plug-In . SVG Version: 6.00 Build 0)  -->
<svg version="1.1" id="Layer_1" xmlns="http://www.w3.org/2000/svg" xmlns:xlink="http://www.w3.org/1999/xlink" x="0px" y="0px"
	 viewBox="0 0 6 8" style="enable-background:new 0 0 6 8;" xml:space="preserve">
<style type="text/css">
	.st0{fill:#6E6E6E;fill-opacity:0.7383;}
</style>
<path class="st0" d="M665.5,535.1c-0.1-0.1-0.1-0.1-0.1-0.2c0-0.1,0-0.1,0.1-0.2l3.3-3.3c0.1-0.1,0.1-0.1,0.2-0.1s0.1,0,0.2,0.1
	l0.7,0.7c0.1,0.1,0.1,0.1,0.1,0.2s0,0.1-0.1,0.2l-2.4,2.4l2.4,2.4c0.1,0.1,0.1,0.1,0.1,0.2s0,0.1-0.1,0.2l-0.7,0.7
	c-0.1,0.1-0.1,0.1-0.2,0.1s-0.1,0-0.2-0.1L665.5,535.1L665.5,535.1z"/>
</svg>
