<svg width="6px" height="8px" viewBox="665 531 6 8" version="1.1" xmlns="http://www.w3.org/2000/svg"
     xmlns:xlink="http://www.w3.org/1999/xlink">
    <path d="M665.5,535.1c-0.1-0.1-0.1-0.1-0.1-0.2c0-0.1,0-0.1,0.1-0.2l3.3-3.3c0.1-0.1,0.1-0.1,0.2-0.1s0.1,0,0.2,0.1
	l0.7,0.7c0.1,0.1,0.1,0.1,0.1,0.2s0,0.1-0.1,0.2l-2.4,2.4l2.4,2.4c0.1,0.1,0.1,0.1,0.1,0.2s0,0.1-0.1,0.2l-0.7,0.7
	c-0.1,0.1-0.1,0.1-0.2,0.1s-0.1,0-0.2-0.1L665.5,535.1L665.5,535.1z"
        stroke="none" fill-opacity="0.738337862" fill="#000000" fill-rule="evenodd"/>
</svg>
